<?xml version="1.0" encoding="utf-8"?>
<!-- Generator: Adobe Illustrator 25.0.1, SVG Export Plug-In . SVG Version: 6.00 Build 0)  -->
<svg version="1.1" id="Layer_1" xmlns="http://www.w3.org/2000/svg" xmlns:xlink="http://www.w3.org/1999/xlink" x="0px" y="0px"
	 viewBox="0 0 863 484" style="enable-background:new 0 0 863 484;" xml:space="preserve">
<style type="text/css">
	.st0{fill:#FF0000;stroke:#FF0000;stroke-width:3.2741;stroke-linecap:round;stroke-linejoin:round;stroke-miterlimit:16.3707;}
	.st1{fill:#FF0000;stroke:#FF0000;stroke-width:4.0927;stroke-linecap:round;stroke-linejoin:round;stroke-miterlimit:16.3707;}
</style>
<g id="surface4679">
	<path class="st0" d="M829.7,228.9c-0.1-17.8-2.7-39.7-12.5-62.9c-15.9-38.5-50.2-42.5-63.2-12.5c-1.5,3.5-5.4,17.1-4.8,36.5l0.2,4
		c0.5,14.5,1.6,9,4.6,5.3c20.7-22.5,48.2-1.4,60.5,16.4c11.4,16.8,15.4,37,15.1,21.8L829.7,228.9z"/>
	<path class="st0" d="M804.5,158.4c-10.6,27.5-33.6,36.1-45.9,29.1c-8.4-4.8-10-11.9-9.4,0.6l0.1,5.5c0.9,24.6,5.7,35.1,9.3,39.8
		c13.7,16.3,41.1,17.9,45.9-29.1V158.4z"/>
	<path class="st0" d="M829.4,220.2c-0.9-16.9-4.5,11.8-10.1,30.1c-8.1,31.2-29.9,60.2-41.2,71.8c-37.7,39-79.1,57.5-121.1,75
		c-23.3,9-49,16.8-37.3,15.7l11.7-0.9c15.9-2,40.9-7.6,65.7-12.8c43.4-10.6,81.7-25.5,88.9-31.8c14.6-13,29.4-38.6,37.3-71.3
		c6.9-32.3,6.8-58,6.4-71.7L829.4,220.2z"/>
	<path class="st0" d="M762.6,264.7c-1.2-11.1-2.5-3.5-6.4,8.3c-2.1,6.8-7.8,20.2-16.2,28.3c-1.8,1.8-3.6,3.3-6.7,5.8l-8,45.1
		c3.1-2.5,4.9-3.9,6.7-5.7c12.6-12.4,20.4-29,22.8-34.3c6.3-14.2,8.7-31.1,8-44.1L762.6,264.7z"/>
	<path class="st0" d="M733.3,307.1c-8.2,6.6-21.9,8.6-31.7,4.7l-8,45.1c9.7,3.9,23.5,1.9,31.7-4.7L733.3,307.1z"/>
	<path class="st0" d="M701.7,311.8c-11.6-4.7-20.8-14.1-25.8-27.7c-12.5-29.9-42.2-180-47.5-210.2c-2.2-13.3-4.7-27.2-7.1-42.1
		l-8,45.1c2.4,14.9,5,28.9,7.1,42.2c5.3,30.3,35,180.3,47.5,210.2c6.1,13.3,14.3,23,25.8,27.7L701.7,311.8z"/>
	<path class="st0" d="M525.6,60.4c2.5,9.4,45.2,197.9,48,213.1c2.3,11.6,4,26.1,2.8,37.4l-0.6,6.6c-0.6,6.9-3.1-3.3-6.8-18.4
		c-2.8-15.1-45.5-203.7-48-213.1L525.6,60.4z"/>
	<path class="st0" d="M528.4,40.1c1.1-6.7,5.5-3.8,14.6,4.7c26.5,24.2,59.7,76.8,75.2,142.1c6.4,26.4,7.1,56.8,5.9,71.7l-1.5,10.9
		c-3.1,28.5-4-2.1-12.4-37.5c-15.5-65.3-48.6-117.9-75.1-142.1c-9.2-8.5-12.2-8.5-14.3-4.6L528.4,40.1z"/>
	<path class="st0" d="M624.1,235.5c0-0.2,0-0.4,0-0.6l0.6,8.7c-0.1-1.6-0.2-3.2-0.3-4.8L624.1,235.5z"/>
	<path class="st0" d="M624,234.9c-0.8-14.3-4.3-4.3-6.6,18c-18,170.2-131.1,133.2-144.7,24.4c-1.6-19.9,14.3-50.5,25.2-82.4
		l-9.5-40.8c-13.5,56.1-27.1,92.9-24.9,138.8c11.3,147.8,152.5,173.7,161.3-5c1-17.6,0.6-32.4-0.2-44.3L624,234.9z"/>
	<path class="st0" d="M488.6,153.5c3.6-5.8,9.9,8.8,15.8,20.2c7,14.9,13.9,26.5,21.5,53.8c6.3,24.4,7.1,45.7,5.9,61.2l-1.1,10.1
		c-3,28.5-5.9,0.6-12.8-26.1c-7.6-27.1-15.2-40-21.5-53.8c-5.1-10.2-11.7-25-15.8-20.2L488.6,153.5z"/>
	<path class="st0" d="M531,259.4c-0.4-10.7-2,5.4-10.1,28.4c-10,29.7-27.6,57.9-46.5,77.7c-19.9,22-57.9,45.7-88.3,59.8
		c-20.4,9.5-50.3,21.4-32.1,18.7l8-1.3c17.2-2.6,45.2-9.6,68-15.5c30.5-7.9,47.6-16.6,54.3-22.3c16.7-17.1,31-39.6,40.6-71.4
		c9.8-33.5,6.6-61.1,6.3-71.7L531,259.4z"/>
	<path class="st0" d="M371.9,401.2c0.2-7.7-2.1-24.1-4.1-33.4c-5.5-25.7-8-50.2-8.5-69.6c-1.1-51.4,16.3-80.3,67.3-110
		c20.2-11.7,28.9-2.6,29-10.4l0.1-34.8c0-14.2-11.7-16.7-37.2-4.2c-56.5,27.6-75.2,79.9-69.5,153.9c2,26.1,6.5,55.2,13.4,87.6
		c2.6,12,8.5,39.8,9.4,27.7L371.9,401.2z"/>
	<path class="st0" d="M455.6,177.8c0-0.1,0-0.1,0-0.2l0.1-34c0-0.2,0-0.5,0-0.7L455.6,177.8z"/>
	<path class="st0" d="M456,151.4c0-1.6,0-2.9,0-4.1l0.2,20.3c0-2.6-0.1-5.3-0.1-8L456,151.4z"/>
	<path class="st0" d="M456,147.3c-0.1-18.2-3.7,18.7-10.4,37.9c-12.6,37.8-30.1,86-80.2,111.6c-7.2,3.1-21.7,7.9-32.2,9.2
		c-7.2,0.9-14.6,1-23.1-0.3l-8,45.1c8.5,1.3,15.9,1.1,23.1,0.3c10.6-1.3,25.1-6.1,32.2-9.2c54.1-21.8,77.2-66.6,90.5-111
		c7-21.1,8.4-41,8.2-63.5L456,147.3z"/>
	<path class="st0" d="M324.5,279.3c-5.7-15.8-3.9,11.5-16.8,28.9c-4.8,6.6-8.2,9.7-14.1,15.1l-8,45.1c6-5.4,9.3-8.5,14.1-15.1
		c17.5-24.3,29.6-53.7,25.1-72.6L324.5,279.3z"/>
	<path class="st0" d="M293.6,323.4c-7.3,8.6-23.5,13.9-34,9.7l-8,45.1c10.4,4.2,25.9-1.8,34-9.7L293.6,323.4z"/>
	<path class="st0" d="M259.6,333c-11.6-4.7-20.8-14.1-25.8-27.7c-13.3-32-47.3-203.9-51.1-227.4c-2.2-13.4-4.8-27.4-7.1-42.1
		l-7.9,44.9c2.3,14.9,4.9,28.9,7.1,42.4c3.8,23.4,37.8,195.4,51.1,227.4c6.2,13.3,14.3,23,25.8,27.7L259.6,333z"/>
	<path class="st0" d="M304.4,222.6c0.1-16.4-1.1-40.7-10.7-63.9c-15.9-38.5-56.9-51.1-69.9-21.2c-1.5,3.5-5.4,17.1-4.8,36.5l0.2,4
		c0.5,14.5,1.6,9,4.6,5.3c20.7-22.5,54.9,7.3,67.2,25.1c8.2,11.6,12.8,31.4,13,21.1L304.4,222.6z"/>
	<path class="st0" d="M274.4,142.5c-10.6,27.5-33.6,36.1-45.9,29.1c-8.3-4.8-10-12-9.4,0.6l0.1,5.4c0.9,24.6,5.7,35.1,9.3,39.8
		c13.7,16.3,41.1,17.9,45.9-29.1V142.5z"/>
	<path class="st0" d="M304.2,211.1c-0.6-12.8-3.9,16.4-21.2,30.8l-8,45.1c17.7-14.3,31.3-38.3,29.3-73.7L304.2,211.1z"/>
	<path class="st0" d="M283,241.9c-15.2,12.6-41.1,19.3-59.7,12.6l-8,45.1c18.6,6.7,44.3-0.2,59.7-12.6L283,241.9z"/>
	<path class="st0" d="M223.3,254.5c-14.1-5-26.8-19.7-40.8-18.9c-28.1,1.8-46.7,35.6-57.1,84.7c-9.7,48.7-14.3,65.8-30.6,76.7
		c-16.1,10.5-40.3-1.4-49.7-55.2c-1.8-13-0.9-27.3,0.2-37.6c1.7-8.8,4.7-16.2,3.3-13.9l-0.5,0.8c-1.2,1.9-5,11.5-6.7,18
		c-1.8,9.9-2.7,24.9-1.2,37.9c8.1,59,30.8,91.7,54.9,88.4c20.2-2.7,30.4-29.4,36.9-78.1c7.1-53.3,25.2-74.1,44.9-76.2
		c11.6-1.2,24.4,13.5,38.4,18.5L223.3,254.5z"/>
	<path class="st0" d="M48.6,290.3c-0.1,0.2-0.2,0.4-0.4,0.6l-0.1,0.1c0,0,0,0,0,0L48.6,290.3z"/>
	<path class="st1" d="M229.7,26.1c12.2,6.1,30.6,15.1,43,22.4l-19,40.8c-12.5-7.3-30.8-16.3-43-22.4L229.7,26.1z"/>
	<path class="st1" d="M330.2,99.9c12.2,6.1,30.6,15.1,43,22.4l-19,40.8c-12.5-7.3-30.8-16.3-43-22.4L330.2,99.9z"/>
	<path class="st1" d="M49.9,171.8c12.2,6.1,31.6,18.4,44.1,25.7l-21.6,38.8c-12.5-7.3-29.3-17.5-41.5-23.7L49.9,171.8z"/>
	<path class="st1" d="M118.8,158.8c12.2,6.1,30.2,17.6,42.7,24.9L142,224.5c-12.5-7.3-32.9-20.3-45.1-26.4L118.8,158.8z"/>
	<path class="st1" d="M695.3,408.9c12.2,6.1,30.6,15.1,43,22.4l-19,40.8c-12.5-7.3-30.8-16.3-43-22.4L695.3,408.9z"/>
</g>
</svg>
