<?xml version="1.0" encoding="utf-8"?>
<!-- Generator: Adobe Illustrator 25.1.0, SVG Export Plug-In . SVG Version: 6.00 Build 0)  -->
<svg version="1.1" id="Layer_1" xmlns="http://www.w3.org/2000/svg" xmlns:xlink="http://www.w3.org/1999/xlink" x="0px" y="0px"
	 viewBox="0 0 612 151.2" style="enable-background:new 0 0 612 151.2;" xml:space="preserve">
<style type="text/css">
	.st0{fill:none;stroke:#000000;stroke-width:4;stroke-miterlimit:10;}
</style>
<g>
	<path d="M324.7,55.9c1.9,0,3.1-0.2,3.7-0.7c0.6-0.5,0.9-1,0.9-1.7c0-0.7-0.2-1.5-0.6-2.4c-0.4-0.9-0.8-1.8-1.4-2.8
		c-0.6-1-1.1-1.9-1.7-2.8c-0.6-0.9-1.1-1.7-1.6-2.4l5-3.3c1.8,2.4,3.3,4.8,4.3,7.1c1.1,2.3,1.7,4.1,2.1,5.6c0.3,1.3,0.9,2.3,1.8,2.7
		c0.9,0.5,1.8,0.7,2.7,0.7c1.1,0,1.8,0.3,2.3,0.8c0.5,0.5,0.7,1.2,0.7,2c0,0.9-0.3,1.6-0.9,2.2s-1.4,0.9-2.5,0.9
		c-2.6,0-4.6-0.8-5.9-2.4c-0.8,0.7-1.8,1.3-3.2,1.8c-1.4,0.5-3,0.7-4.9,0.7c-1.3,0-2.7-0.2-4.3-0.5c-1.6-0.3-3-0.8-4.2-1.5l2.1-5.3
		c1,0.4,2,0.8,3,1C323.1,55.8,323.9,55.9,324.7,55.9z"/>
	<path d="M339.6,61.8l0.4-5.9c1.7,0,3-0.1,3.9-0.3c0.9-0.2,1.5-0.5,1.9-0.9c0.4-0.5,0.5-1.1,0.5-2c0-0.8-0.1-1.7-0.3-2.8
		c-0.2-1.1-0.5-2.2-0.8-3.4c-0.3-1.2-0.7-2.3-1-3.2l5.8-1.6c0.4,1,0.7,2.1,1.1,3.3c0.3,1.3,0.6,2.6,0.8,3.9c0.2,1.3,0.3,2.6,0.3,3.9
		c0,1.9-0.3,3.5-0.9,4.7c-0.6,1.2-1.5,2.1-2.6,2.8s-2.4,1.1-4,1.3C343.1,61.6,341.4,61.8,339.6,61.8z M342.7,71.5
		c-0.8,0-1.5-0.3-2.1-0.9c-0.6-0.6-0.9-1.3-0.9-2c0-0.8,0.3-1.5,0.9-2.1s1.3-0.9,2.1-0.9c0.8,0,1.5,0.3,2,0.9
		c0.6,0.6,0.8,1.3,0.8,2.1c0,0.8-0.3,1.5-0.8,2C344.2,71.2,343.5,71.5,342.7,71.5z M350,71.5c-0.8,0-1.5-0.3-2.1-0.9
		c-0.6-0.6-0.9-1.3-0.9-2c0-0.8,0.3-1.5,0.9-2.1s1.3-0.9,2.1-0.9c0.8,0,1.5,0.3,2,0.9s0.8,1.3,0.8,2.1c0,0.8-0.3,1.5-0.8,2
		C351.4,71.2,350.8,71.5,350,71.5z"/>
	<path d="M363.9,55.9c1.9,0,3.1-0.2,3.7-0.7c0.6-0.5,0.9-1,0.9-1.7c0-0.7-0.2-1.5-0.6-2.4c-0.4-0.9-0.8-1.8-1.4-2.8
		c-0.6-1-1.1-1.9-1.7-2.8c-0.6-0.9-1.1-1.7-1.6-2.4l5-3.3c1.8,2.4,3.3,4.8,4.3,7.1c1.1,2.3,1.7,4.1,2.1,5.6c0.3,1.3,0.9,2.3,1.8,2.7
		c0.9,0.5,1.8,0.7,2.7,0.7c1.1,0,1.8,0.3,2.3,0.8s0.7,1.2,0.7,2c0,0.9-0.3,1.6-0.9,2.2c-0.6,0.6-1.4,0.9-2.5,0.9
		c-2.6,0-4.6-0.8-5.9-2.4c-0.8,0.7-1.8,1.3-3.2,1.8s-3,0.7-4.9,0.7c-1.3,0-2.7-0.2-4.3-0.5c-1.6-0.3-3-0.8-4.2-1.5l2.1-5.3
		c1,0.4,2,0.8,3,1C362.2,55.8,363.1,55.9,363.9,55.9z"/>
	<path d="M378.7,61.8l0.4-5.9c3,0,6-0.3,8.8-1c2.9-0.7,5.4-1.8,7.6-3.2c-1.3-0.8-2.7-1.3-4.3-1.8s-3.3-0.6-5.1-0.6
		c-0.7,0-1.4,0-2.2,0.1c-0.7,0.1-1.5,0.2-2.3,0.4l-0.8-5.8c0.8-0.2,1.7-0.4,2.6-0.5c0.9-0.1,1.7-0.1,2.4-0.1c1.9,0,3.6,0.3,5.1,0.8
		c1.5,0.5,2.9,1.1,4.1,1.8s2.4,1.3,3.5,1.8c1.1,0.5,2.1,0.8,3.2,0.8h1.6l0.7,5.6c-1.2,0.1-2.3,0.3-3.4,0.7c-1.1,0.4-2.1,0.9-3.1,1.5
		c-1,0.6-2.1,1.2-3.3,1.9c-1.2,0.6-2.5,1.2-3.9,1.8c-1.5,0.6-3.1,1-5.1,1.4C383.5,61.6,381.2,61.8,378.7,61.8z M390.6,71.2
		c-0.8,0-1.5-0.3-2.1-0.8c-0.6-0.6-0.9-1.2-0.9-2.1c0-0.8,0.3-1.5,0.9-2.1c0.6-0.6,1.3-0.9,2.1-0.9c0.8,0,1.5,0.3,2.1,0.9
		c0.6,0.6,0.9,1.3,0.9,2.1c0,0.8-0.3,1.5-0.9,2.1C392.1,71,391.5,71.2,390.6,71.2z M406.3,61.8c-1.7,0-3.3-0.2-4.7-0.6s-2.6-1-3.7-2
		c-1-1-1.9-2.3-2.5-4.1l3.3-2.7c0.8,1.3,1.8,2.3,3,2.7c1.3,0.5,2.9,0.7,5,0.7c1.1,0,1.8,0.3,2.3,0.8c0.4,0.5,0.7,1.2,0.7,2
		c0,0.9-0.3,1.6-0.9,2.2S407.3,61.8,406.3,61.8z"/>
	<path d="M406.3,61.8l0.4-5.9c1.3,0,2.2-0.1,2.8-0.4c0.6-0.3,0.9-0.8,1-1.5c0.1-0.7,0.1-1.8,0.1-3.3l-0.8-20h5.9l0.8,20.4
		c0.1,1.6,0,3.1-0.2,4.4c-0.2,1.3-0.6,2.4-1.3,3.3c-0.7,0.9-1.7,1.6-3.2,2.1C410.5,61.5,408.6,61.8,406.3,61.8z"/>
	<path d="M422.1,61.6l-0.9-30.8h5.9l0.9,30.8H422.1z"/>
	<path d="M454.5,61.8c-2.6,0-4.6-0.3-6-0.8c-1.4-0.5-2.4-1.4-3-2.5c-0.6-1.1-0.9-2.6-0.9-4.3l-0.9-23.4h5.9l0.9,20.6
		c0.1,1.3,0.2,2.3,0.4,2.9s0.7,1.1,1.3,1.3c0.6,0.2,1.6,0.3,2.8,0.3c1.1,0,1.8,0.3,2.3,0.8s0.7,1.2,0.7,2c0,0.9-0.3,1.6-0.9,2.2
		C456.5,61.5,455.6,61.8,454.5,61.8z"/>
	<path d="M454.6,61.8l0.4-5.9c1,0,1.9-0.1,2.6-0.3c0.7-0.2,1.3-0.6,1.9-1.2c0.5-0.6,0.9-1.5,1.3-2.7c0.4-1.2,0.7-2.8,0.9-4.7
		l5.5,0.9c-0.1,0.6-0.2,1.4-0.4,2.3c-0.1,0.9-0.2,1.7-0.2,2.5c0,1,0.4,1.8,1.3,2.3c0.8,0.5,2.3,0.8,4.3,0.8c1.1,0,1.8,0.3,2.3,0.8
		s0.7,1.2,0.7,2c0,0.9-0.3,1.6-0.9,2.2s-1.4,0.9-2.5,0.9c-2,0-3.6-0.3-5-0.8c-1.4-0.5-2.4-1.4-3.1-2.7c-0.8,1-1.6,1.8-2.7,2.3
		c-1,0.5-2.1,0.8-3.2,1C456.7,61.7,455.6,61.8,454.6,61.8z M459,71.5c-0.8,0-1.5-0.3-2.1-0.9c-0.6-0.6-0.9-1.3-0.9-2
		c0-0.8,0.3-1.5,0.9-2.1s1.3-0.9,2.1-0.9c0.8,0,1.5,0.3,2,0.9s0.8,1.3,0.8,2.1c0,0.8-0.3,1.5-0.8,2C460.5,71.2,459.8,71.5,459,71.5z
		 M466.3,71.5c-0.8,0-1.5-0.3-2.1-0.9c-0.6-0.6-0.9-1.3-0.9-2c0-0.8,0.3-1.5,0.9-2.1s1.3-0.9,2.1-0.9c0.8,0,1.5,0.3,2,0.9
		s0.8,1.3,0.8,2.1c0,0.8-0.3,1.5-0.8,2C467.8,71.2,467.1,71.5,466.3,71.5z"/>
	<path d="M471.8,61.8l0.4-5.9h5.9c1.5,0,2.4-0.1,2.9-0.4c0.5-0.3,0.7-0.6,0.7-1.2c0-0.6-0.3-1.3-0.9-2.2c-0.6-0.8-1.4-1.7-2.3-2.6
		c-0.9-0.9-1.8-1.8-2.7-2.6c-0.9-0.8-1.6-1.6-2.3-2.2c-0.6-0.6-0.9-1.1-0.9-1.4c0-1.2,0.1-2,0.3-2.5c0.2-0.5,0.4-0.9,0.7-1.2
		c0.6-0.6,1.7-1.4,3.1-2.2c1.4-0.8,3.2-1.8,5.2-2.8c2-1,4.3-2.1,6.7-3.2l2.4,5.1c-2.8,1.2-5.1,2.3-7,3.2c-1.9,0.9-3.5,1.8-4.8,2.5
		c1.9,1.7,3.5,3.3,4.8,4.8c1.3,1.5,2.6,3.3,3.8,5.3c0.6,1,1.3,1.7,1.9,2.2c0.7,0.5,1.3,0.8,1.9,0.9c0.6,0.2,1.2,0.2,1.7,0.2
		c1.1,0,1.8,0.3,2.3,0.8s0.7,1.2,0.7,2c0,0.9-0.3,1.6-0.9,2.2c-0.6,0.6-1.4,0.9-2.5,0.9s-2.3-0.2-3.6-0.7c-1.3-0.4-2.4-1.2-3.3-2.4
		c-0.9,1.1-2,1.9-3.4,2.3c-1.4,0.5-3.1,0.7-5.1,0.7H471.8z"/>
	<path d="M493.2,61.8l0.4-5.9c1.7,0,3-0.1,3.9-0.3c0.9-0.2,1.5-0.5,1.9-0.9c0.4-0.5,0.5-1.1,0.5-2c0-0.8-0.1-1.7-0.3-2.8
		c-0.2-1.1-0.5-2.2-0.8-3.4s-0.7-2.3-1-3.2l5.8-1.6c0.4,1,0.7,2.1,1.1,3.3c0.3,1.3,0.6,2.6,0.8,3.9c0.2,1.3,0.3,2.6,0.3,3.9
		c0,1.9-0.3,3.5-0.9,4.7c-0.6,1.2-1.5,2.1-2.6,2.8c-1.1,0.6-2.4,1.1-4,1.3C496.7,61.6,495,61.8,493.2,61.8z M496.3,71.5
		c-0.8,0-1.5-0.3-2.1-0.9c-0.6-0.6-0.9-1.3-0.9-2c0-0.8,0.3-1.5,0.9-2.1s1.3-0.9,2.1-0.9c0.8,0,1.5,0.3,2,0.9
		c0.6,0.6,0.8,1.3,0.8,2.1c0,0.8-0.3,1.5-0.8,2C497.8,71.2,497.1,71.5,496.3,71.5z M503.6,71.5c-0.8,0-1.5-0.3-2.1-0.9
		c-0.6-0.6-0.9-1.3-0.9-2c0-0.8,0.3-1.5,0.9-2.1s1.3-0.9,2.1-0.9c0.8,0,1.5,0.3,2,0.9c0.6,0.6,0.8,1.3,0.8,2.1c0,0.8-0.3,1.5-0.8,2
		C505,71.2,504.4,71.5,503.6,71.5z"/>
	<path d="M511.4,74.6l-0.7-2.9c0.9-0.2,1.6-0.3,2.1-0.4c-0.5-0.4-0.9-0.8-1.3-1.4c-0.4-0.6-0.5-1.2-0.5-1.9c0-1,0.2-1.8,0.7-2.4
		c0.4-0.6,1-1.1,1.7-1.3c0.7-0.3,1.4-0.4,2.2-0.4c0.8,0,1.6,0.1,2.2,0.3l-0.3,3c-0.3-0.1-0.6-0.1-0.8-0.2c-0.3-0.1-0.6-0.1-0.9-0.1
		c-0.4,0-0.7,0.1-1,0.4c-0.3,0.2-0.4,0.5-0.4,0.9c0,0.6,0.2,1,0.7,1.5c0.5,0.4,0.9,0.7,1.4,0.9c0.9-0.3,1.7-0.5,2.5-0.8l0.8,2.8
		c-1.1,0.4-2.4,0.8-3.9,1.2C514.3,73.9,512.8,74.3,511.4,74.6z M511.7,61.6l-0.9-30.8h5.9l0.9,30.8H511.7z"/>
	<path d="M547,62.1c-2.9,0-5.7-0.1-8.4-0.2c-2.7-0.1-5-0.3-7.1-0.6l0.7-5.8c1,0.1,2,0.2,3,0.3c0.9,0.1,1.8,0.1,2.7,0.2
		c0.5-0.8,1.1-1.6,1.6-2.3l-0.8-22.9h5.9l0.6,16.7c1.6-1.3,3.3-2.4,5-3.2c1.8-0.8,3.5-1.2,5.4-1.2c1.8,0,3.3,0.4,4.7,1.1
		c1.3,0.7,2.4,1.7,3.1,3c0.7,1.3,1.1,2.8,1.1,4.5c0,2-0.6,3.8-1.7,5.4c-1.2,1.6-3,2.8-5.6,3.7C554.7,61.7,551.3,62.1,547,62.1z
		 M555.2,49c-1.3,0-2.6,0.4-3.8,1.1c-1.2,0.7-2.4,1.6-3.5,2.8c-1.1,1.1-2.1,2.2-3,3.4c0.5,0,1.1,0,1.7,0c3.1,0,5.5-0.2,7.3-0.5
		c1.8-0.4,3-0.8,3.8-1.5c0.8-0.6,1.1-1.3,1.1-2.1c0-0.8-0.3-1.5-0.9-2.2C557.2,49.3,556.4,49,555.2,49z M566.9,61.8
		c-2.2,0-4.2-0.3-6-0.9c-1.9-0.6-3.3-1.3-4.3-2.1l3.8-4.1c1,0.4,2,0.7,3.1,0.9c1.1,0.2,2.3,0.3,3.8,0.3c1.1,0,1.8,0.3,2.3,0.8
		s0.7,1.2,0.7,2c0,0.9-0.3,1.6-0.9,2.2S568,61.8,566.9,61.8z"/>
	<path d="M567,61.8l0.4-5.9c3,0,6-0.3,8.8-1c2.9-0.7,5.4-1.8,7.6-3.2c-1.3-0.8-2.7-1.3-4.3-1.8s-3.3-0.6-5.1-0.6
		c-0.7,0-1.4,0-2.2,0.1c-0.7,0.1-1.5,0.2-2.3,0.4l-0.8-5.8c0.8-0.2,1.7-0.4,2.6-0.5c0.9-0.1,1.7-0.1,2.4-0.1c1.9,0,3.6,0.3,5.1,0.8
		c1.5,0.5,2.9,1.1,4.1,1.8s2.4,1.3,3.5,1.8c1.1,0.5,2.1,0.8,3.2,0.8h1.6l0.7,5.6c-1.2,0.1-2.3,0.3-3.4,0.7c-1.1,0.4-2.1,0.9-3.1,1.5
		c-1,0.6-2.1,1.2-3.3,1.9c-1.2,0.6-2.5,1.2-3.9,1.8c-1.5,0.6-3.1,1-5.1,1.4C571.7,61.6,569.5,61.8,567,61.8z M574.2,39.4
		c-0.9,0-1.6-0.3-2.2-0.9s-0.9-1.3-0.9-2.2c0-0.9,0.3-1.6,0.9-2.2c0.6-0.6,1.3-0.9,2.2-0.9c0.8,0,1.6,0.3,2.2,0.9
		c0.6,0.6,0.9,1.4,0.9,2.2c0,0.9-0.3,1.6-0.9,2.2S575.1,39.4,574.2,39.4z"/>
	<path d="M350.9,112.9c-4,0-7.2-0.4-9.7-1.2c-2.4-0.8-4.2-1.9-5.2-3.4c-1.1-1.4-1.6-3.1-1.6-4.9c0-1.3,0.2-2.7,0.5-4.1
		s0.7-2.6,1-3.7l5.3,1.2c-0.2,0.8-0.4,1.6-0.6,2.5c-0.2,0.9-0.3,1.7-0.3,2.3c0,1,0.4,2,1.1,2.8c0.7,0.8,2,1.4,3.7,1.9
		c1.7,0.4,4,0.7,6.9,0.7l0.8,4.5L350.9,112.9z M350.9,112.9l1.1-5.9c2,0,4-0.1,5.8-0.3s3.6-0.6,5.3-1.2c1.7-0.6,3.3-1.5,4.8-2.6
		c1.5-1.2,2.8-2.7,4-4.6l4.7,2.1c-0.2,0.5-0.3,1-0.4,1.5c-0.1,0.5-0.2,0.9-0.2,1.2c0,1,0.4,1.8,1.1,2.3c0.8,0.6,2.2,0.8,4.3,0.8
		c1.1,0,1.8,0.3,2.3,0.8c0.4,0.5,0.7,1.2,0.7,2c0,0.9-0.3,1.6-0.9,2.2c-0.6,0.6-1.4,0.9-2.5,0.9c-2.5,0-4.6-0.4-6.2-1.3
		c-1.6-0.9-2.7-2.1-3.2-3.5c-2.2,1.9-5,3.3-8.7,4.2C359.4,112.5,355.4,112.9,350.9,112.9z M353.9,122.8c-0.8,0-1.5-0.3-2.1-0.8
		c-0.6-0.6-0.9-1.2-0.9-2.1c0-0.8,0.3-1.5,0.9-2.1c0.6-0.6,1.3-0.9,2.1-0.9c0.8,0,1.5,0.3,2.1,0.9c0.6,0.6,0.9,1.3,0.9,2.1
		c0,0.8-0.3,1.5-0.9,2.1C355.4,122.5,354.7,122.8,353.9,122.8z"/>
	<path d="M381.1,112.3l0.4-5.9c1.7,0,3-0.1,3.9-0.3c0.9-0.2,1.5-0.5,1.9-0.9c0.4-0.5,0.5-1.1,0.5-2c0-0.8-0.1-1.7-0.3-2.8
		c-0.2-1.1-0.5-2.2-0.8-3.4s-0.7-2.3-1-3.2l5.8-1.6c0.4,1,0.7,2.1,1.1,3.3c0.3,1.3,0.6,2.6,0.8,3.9c0.2,1.3,0.3,2.6,0.3,3.9
		c0,1.9-0.3,3.5-0.9,4.7c-0.6,1.2-1.5,2.1-2.6,2.8c-1.1,0.6-2.4,1.1-4,1.3C384.6,112.2,382.9,112.3,381.1,112.3z M384.2,122
		c-0.8,0-1.5-0.3-2.1-0.9c-0.6-0.6-0.9-1.3-0.9-2c0-0.8,0.3-1.5,0.9-2.1s1.3-0.9,2.1-0.9c0.8,0,1.5,0.3,2,0.9
		c0.6,0.6,0.8,1.3,0.8,2.1c0,0.8-0.3,1.5-0.8,2C385.7,121.8,385,122,384.2,122z M391.5,122c-0.8,0-1.5-0.3-2.1-0.9
		c-0.6-0.6-0.9-1.3-0.9-2c0-0.8,0.3-1.5,0.9-2.1s1.3-0.9,2.1-0.9c0.8,0,1.5,0.3,2,0.9c0.6,0.6,0.8,1.3,0.8,2.1c0,0.8-0.3,1.5-0.8,2
		C392.9,121.8,392.3,122,391.5,122z"/>
	<path d="M409.5,112.3c-2.6,0-4.6-0.3-6-0.8c-1.4-0.5-2.4-1.4-3-2.5c-0.6-1.1-0.9-2.6-0.9-4.3l-0.9-23.4h5.9l0.9,20.6
		c0.1,1.3,0.2,2.3,0.4,2.9s0.7,1.1,1.3,1.3c0.6,0.2,1.6,0.3,2.8,0.3c1.1,0,1.8,0.3,2.3,0.8s0.7,1.2,0.7,2c0,0.9-0.3,1.6-0.9,2.2
		C411.5,112,410.6,112.3,409.5,112.3z"/>
	<path d="M409.6,112.3l0.4-5.9c1.7,0,3-0.1,3.9-0.3c0.9-0.2,1.5-0.5,1.9-0.9c0.4-0.5,0.5-1.1,0.5-2c0-0.8-0.1-1.7-0.3-2.8
		c-0.2-1.1-0.5-2.2-0.8-3.4s-0.7-2.3-1-3.2l5.8-1.6c0.4,1,0.7,2.1,1.1,3.3c0.3,1.3,0.6,2.6,0.8,3.9c0.2,1.3,0.3,2.6,0.3,3.9
		c0,1.9-0.3,3.5-0.9,4.7c-0.6,1.2-1.5,2.1-2.6,2.8c-1.1,0.6-2.4,1.1-4,1.3C413.1,112.2,411.4,112.3,409.6,112.3z M413.7,88.7
		c-0.8,0-1.5-0.3-2.1-0.9c-0.6-0.6-0.9-1.3-0.9-2c0-0.8,0.3-1.5,0.9-2.1c0.6-0.6,1.3-0.9,2.1-0.9c0.8,0,1.5,0.3,2,0.9
		s0.8,1.3,0.8,2.1c0,0.8-0.3,1.5-0.8,2S414.5,88.7,413.7,88.7z M421,88.7c-0.8,0-1.5-0.3-2.1-0.9c-0.6-0.6-0.9-1.3-0.9-2
		c0-0.8,0.3-1.5,0.9-2.1c0.6-0.6,1.3-0.9,2.1-0.9c0.8,0,1.5,0.3,2,0.9s0.8,1.3,0.8,2.1c0,0.8-0.3,1.5-0.8,2
		C422.4,88.4,421.8,88.7,421,88.7z"/>
	<path d="M427.1,121.7l-1.2-5.9c2.5-0.3,4.7-0.7,6.4-1.2c1.7-0.5,3.1-1.3,4-2.4h-1.1c-2.6,0-4.7-0.5-6.2-1.5c-1.5-1-2.3-2.6-2.3-5
		c0-1.3,0.2-2.5,0.7-3.8c0.4-1.3,1-2.4,1.8-3.5c0.8-1.1,1.7-1.9,2.8-2.5c1.1-0.6,2.2-0.9,3.4-0.9c1.7,0,3.1,0.5,4.4,1.6
		c1.3,1,2.3,2.4,3,4.1c0.7,1.7,1.1,3.6,1.1,5.6h3.3c1.1,0,1.8,0.3,2.3,0.8s0.7,1.2,0.7,2c0,0.9-0.3,1.6-0.9,2.2
		c-0.6,0.6-1.4,0.9-2.5,0.9h-3.9c-1.1,2.9-3,5.2-5.7,6.8C434.4,120.6,431.1,121.5,427.1,121.7z M432.5,104.8c0,0.3,0.1,0.6,0.3,0.9
		c0.2,0.3,0.7,0.6,1.5,0.8s2,0.2,3.6,0.1c0-1.6-0.3-2.9-0.8-3.9c-0.5-0.9-1.2-1.4-2-1.4c-0.6,0-1.1,0.2-1.5,0.6
		c-0.4,0.4-0.7,0.9-0.9,1.4S432.5,104.4,432.5,104.8z"/>
	<path d="M446.7,112.3l0.4-5.9c1.8,0,3.1-0.2,3.8-0.6c0.7-0.4,1.1-1.3,1.1-2.6c0-0.8-0.1-1.7-0.3-2.8c-0.2-1.1-0.5-2.2-0.8-3.4
		c-0.3-1.2-0.7-2.3-1-3.2l5.8-1.6c0.3,1,0.7,2.1,1,3.3c0.3,1.3,0.6,2.6,0.9,3.9c0.2,1.3,0.4,2.6,0.4,3.9c0,1.9-0.3,3.5-0.9,4.7
		c-0.6,1.2-1.4,2.1-2.5,2.8s-2.3,1.1-3.6,1.3C449.7,112.2,448.3,112.3,446.7,112.3z M452.8,88.6c-0.9,0-1.6-0.3-2.2-0.9
		s-0.9-1.3-0.9-2.2c0-0.9,0.3-1.6,0.9-2.2c0.6-0.6,1.3-0.9,2.2-0.9c0.8,0,1.6,0.3,2.2,0.9c0.6,0.6,0.9,1.4,0.9,2.2
		c0,0.9-0.3,1.6-0.9,2.2S453.7,88.6,452.8,88.6z"/>
	<path d="M462.5,121.7l-1.2-5.9c2.5-0.3,4.7-0.7,6.4-1.2c1.7-0.5,3.1-1.3,4-2.4h-1.1c-2.6,0-4.7-0.5-6.2-1.5c-1.5-1-2.3-2.6-2.3-5
		c0-1.3,0.2-2.5,0.7-3.8c0.4-1.3,1-2.4,1.8-3.5c0.8-1.1,1.7-1.9,2.8-2.5c1.1-0.6,2.2-0.9,3.4-0.9c1.7,0,3.1,0.5,4.4,1.6
		c1.3,1,2.3,2.4,3,4.1c0.7,1.7,1.1,3.6,1.1,5.6h3.3c1.1,0,1.8,0.3,2.3,0.8s0.7,1.2,0.7,2c0,0.9-0.3,1.6-0.9,2.2
		c-0.6,0.6-1.4,0.9-2.5,0.9h-3.9c-1.1,2.9-3,5.2-5.7,6.8C469.8,120.6,466.5,121.5,462.5,121.7z M467.9,104.8c0,0.3,0.1,0.6,0.3,0.9
		c0.2,0.3,0.7,0.6,1.5,0.8s2,0.2,3.6,0.1c0-1.6-0.3-2.9-0.8-3.9c-0.5-0.9-1.2-1.4-2-1.4c-0.6,0-1.1,0.2-1.5,0.6
		c-0.4,0.4-0.7,0.9-0.9,1.4S467.9,104.4,467.9,104.8z"/>
	<path d="M482.1,112.3l0.4-5.9c0.6,0,1.2-0.2,1.7-0.5c0.5-0.3,0.9-0.9,1.4-1.6c0.5-0.8,1.1-1.8,1.8-3.2c1.3-2.5,2.6-4.3,4-5.2
		c1.4-0.9,2.9-1.4,4.3-1.4c1.7,0,3.1,0.5,4.5,1.4c1.3,0.9,2.4,2.1,3.1,3.6c0.8,1.5,1.1,3,1.1,4.7c0,1.5-0.3,2.8-0.9,4
		c-0.6,1.2-1.5,2.1-2.6,2.8c-1.1,0.7-2.4,1-3.8,1c-1.1,0-2.3-0.2-3.7-0.5c-1.4-0.3-2.8-1-4.3-1.9c-0.9,1-1.8,1.7-2.9,2
		S483.8,112.3,482.1,112.3z M495.7,100.4c-0.8,0-1.5,0.4-1.9,1.2c-0.5,0.8-1,1.9-1.7,3.2c0.9,0.4,1.7,0.8,2.4,1
		c0.7,0.2,1.4,0.3,1.9,0.3c0.8,0,1.5-0.1,1.9-0.4c0.4-0.3,0.6-0.7,0.6-1.3c0-0.6-0.1-1.2-0.4-1.8c-0.3-0.6-0.7-1.1-1.1-1.6
		C496.8,100.6,496.3,100.4,495.7,100.4z"/>
	<path d="M518.7,110.9c0-1,0.1-2.2,0.4-3.7s0.9-3.2,1.8-5.3l5.2,1.8c-0.5,1.3-0.8,2.4-1.1,3.4c-0.3,0.9-0.4,1.9-0.4,2.8
		c0,1.9,0.7,3.4,2,4.4c1.3,1.1,3.2,1.6,5.7,1.6c2.2,0,4-0.3,5.3-1c1.3-0.6,2.1-1.5,2.7-2.6c0.5-1.1,0.8-2.3,0.8-3.6
		c0-1.2-0.2-2.5-0.6-4.2c-0.4-1.6-0.9-3.4-1.6-5.4l5.9-1.5c0.4,1.6,0.7,2.9,0.9,3.8c0.2,0.9,0.4,1.6,0.6,2c0.4,1.3,1.1,2.1,2,2.4
		c0.9,0.4,2.2,0.5,3.8,0.5c1.1,0,1.8,0.3,2.3,0.8c0.4,0.5,0.7,1.2,0.7,2c0,0.9-0.3,1.6-0.9,2.2c-0.6,0.6-1.4,0.9-2.5,0.9
		c-0.9,0-1.8-0.1-2.7-0.4c-0.9-0.2-1.7-0.6-2.3-1.2c-0.4,3.5-1.8,6.2-4.4,8.2c-2.5,1.9-5.9,2.9-10,2.9c-2.5,0-4.8-0.4-6.8-1.1
		c-2-0.7-3.6-1.9-4.8-3.5S518.7,113.5,518.7,110.9z M532.4,94.9c-0.9,0-1.6-0.3-2.2-0.9c-0.6-0.6-0.9-1.3-0.9-2.2
		c0-0.9,0.3-1.6,0.9-2.2c0.6-0.6,1.3-0.9,2.2-0.9c0.8,0,1.6,0.3,2.2,0.9c0.6,0.6,0.9,1.4,0.9,2.2c0,0.9-0.3,1.6-0.9,2.2
		C534,94.6,533.2,94.9,532.4,94.9z"/>
	<path d="M551.5,112.3l0.4-5.9c0.6,0,1.2-0.2,1.7-0.5c0.5-0.3,0.9-0.9,1.4-1.6c0.5-0.8,1.1-1.8,1.8-3.2c1.3-2.5,2.6-4.3,4-5.2
		c1.4-0.9,2.9-1.4,4.3-1.4c1.7,0,3.1,0.5,4.5,1.4c1.3,0.9,2.4,2.1,3.1,3.6c0.8,1.5,1.1,3,1.1,4.7c0,1.5-0.3,2.8-0.9,4
		c-0.6,1.2-1.5,2.1-2.6,2.8c-1.1,0.7-2.4,1-3.8,1c-1.1,0-2.3-0.2-3.7-0.5c-1.4-0.3-2.8-1-4.3-1.9c-0.9,1-1.8,1.7-2.9,2
		S553.2,112.3,551.5,112.3z M565,100.4c-0.8,0-1.5,0.4-1.9,1.2c-0.5,0.8-1,1.9-1.7,3.2c0.9,0.4,1.7,0.8,2.4,1
		c0.7,0.2,1.4,0.3,1.9,0.3c0.8,0,1.5-0.1,1.9-0.4c0.4-0.3,0.6-0.7,0.6-1.3c0-0.6-0.1-1.2-0.4-1.8c-0.3-0.6-0.7-1.1-1.1-1.6
		C566.1,100.6,565.6,100.4,565,100.4z"/>
</g>
<g>
	<path d="M73.2,52.5h-1.6c-2.3,0-4.1-0.9-5.4-2.8c-1.3-1.9-2-4.4-2-7.5V25.6h4.7v16.5c0,0.7,0.1,1.3,0.3,1.8
		c0.2,0.5,0.4,0.9,0.7,1.3c0.3,0.3,0.7,0.6,1.1,0.7s0.9,0.3,1.3,0.3h0.9V52.5z"/>
	<path d="M91.6,45.1c0,2.2-0.7,4.1-2,5.5c-1.3,1.4-3,2.2-5,2.2c-1,0-1.9-0.2-2.8-0.5c-0.9-0.4-1.7-0.8-2.4-1.5
		c-0.7,0.6-1.4,1-2.2,1.3c-0.8,0.3-1.7,0.4-2.8,0.4H72v-6.2h2.6c0.8,0,1.3-0.3,1.5-0.8c0.3-0.5,0.4-1.2,0.5-1.9c0.1-2.2,0.8-4,2-5.3
		s2.8-2.1,4.8-2.1c1.1,0,2.1,0.2,3.1,0.6c1,0.4,1.9,1,2.6,1.8c0.8,0.8,1.4,1.7,1.8,2.8C91.4,42.5,91.6,43.7,91.6,45.1z M86.9,44.4
		c0-0.8-0.3-1.6-1-2.2c-0.7-0.6-1.4-0.9-2.3-0.9c-0.7,0-1.3,0.2-1.7,0.7c-0.5,0.5-0.7,1.1-0.7,1.8c0,0.7,0.3,1.3,0.9,1.9
		s1.4,0.8,2.3,0.8c0.7,0,1.3-0.2,1.8-0.6C86.7,45.6,86.9,45.1,86.9,44.4z"/>
	<path d="M113.2,52.5L113.2,52.5c-0.7,0-1.4,0-2.2-0.1c-0.8-0.1-1.3-0.1-1.5-0.2c-0.7,1.6-1.7,2.9-3.1,3.9s-2.8,1.8-4.4,2.3
		c-1.6,0.5-3.1,0.9-4.4,1.1s-2.7,0.3-3.9,0.3v-5.9c1.6,0,3.2-0.1,4.6-0.4c1.4-0.3,2.5-0.6,3.4-0.9c1-0.4,1.7-0.6,2.1-0.9
		c0.4-0.2,0.6-0.4,0.7-0.4c-2.8-0.3-4.9-1.2-6.4-2.7c-1.5-1.5-2.2-3.2-2.2-5.2c0-2.1,0.7-4,2-5.5s2.9-2.3,4.8-2.3c2.1,0,3.8,1,5.3,3
		c1.4,2,2.3,4.5,2.5,7.6c0.2,0,0.6,0,1.3,0.1c0.7,0,1.1,0,1.4,0h0.1V52.5z M105.4,45.9c-0.1-1.6-0.5-2.8-1.1-3.7s-1.1-1.4-1.7-1.4
		c-0.6,0-1.1,0.2-1.5,0.7c-0.4,0.5-0.6,1.1-0.6,1.8c0,0.7,0.5,1.3,1.5,1.7C102.9,45.5,104,45.8,105.4,45.9z"/>
	<path d="M120.2,29h4c3,0,6.1,1.7,9.1,5c3.1,3.3,4.6,6.8,4.6,10.5c0,2.5-0.7,4.5-2.1,5.9s-3.3,2.1-5.8,2.1h-18v-6.2h4.4
		c-0.3-0.5-0.4-1.2-0.4-2.1c0-2.3,0.6-4.2,1.9-5.6c1.3-1.4,2.9-2.1,5-2.1c2.1,0,3.8,0.7,5,2.1s1.9,3.2,1.9,5.5
		c0,0.7-0.1,1.4-0.3,2.1h2c0.5,0,1-0.2,1.3-0.5c0.3-0.3,0.5-0.7,0.5-1.3c0-2.8-1-5.2-3-7.3c-2-2-4-3.1-6.1-3.1h-4V29z M123,46.3
		c0.7,0,1.2-0.2,1.7-0.6c0.4-0.4,0.6-0.9,0.6-1.5c0-0.7-0.2-1.2-0.6-1.7s-1-0.7-1.7-0.7c-0.7,0-1.3,0.2-1.7,0.7
		c-0.4,0.5-0.6,1-0.6,1.7c0,0.6,0.2,1.1,0.6,1.5S122.3,46.3,123,46.3z"/>
	<path d="M151.7,52.5h-1.6c-2.3,0-4.1-0.9-5.4-2.8c-1.3-1.9-2-4.4-2-7.5V25.6h4.7v16.5c0,0.7,0.1,1.3,0.3,1.8
		c0.2,0.5,0.4,0.9,0.7,1.3c0.3,0.3,0.7,0.6,1.1,0.7s0.9,0.3,1.3,0.3h0.9V52.5z"/>
	<path d="M160.8,42.1c0,3.2-0.7,5.7-2,7.5c-1.4,1.9-3.1,2.8-5.4,2.8h-2.8v-6.2h2.1c1,0,1.9-0.4,2.5-1.1c0.6-0.7,0.9-1.7,0.9-3v-5.1
		h4.7V42.1z M155.3,32.9h-2.5v-2.6h2.5V32.9z M159.8,32.9h-2.5v-2.6h2.5V32.9z"/>
	<path d="M203.2,52.5h-1.7c-1.6,0-2.8-0.2-3.7-0.7c-0.9-0.5-1.4-1.2-1.8-2.1c-1.2,0.9-2.5,1.6-4,2.1c-1.5,0.5-3.2,0.7-4.9,0.7h-14.7
		v-6.2h4.8l0.5-0.5V25.6h4.6v14.1c1.2-1.4,2.6-2.6,4.3-3.5s3.4-1.4,5.1-1.4c2.2,0,4.1,0.8,5.5,2.3c1.4,1.5,2.2,3.5,2.2,5.9
		c0,0.7-0.1,1.3-0.2,1.8c-0.1,0.6-0.2,0.9-0.3,1c0.2,0.2,0.5,0.3,0.8,0.3s0.6,0.1,1,0.1h2.5V52.5z M192.7,45.2
		c0.7-0.3,1.2-0.7,1.6-1.1c0.4-0.4,0.5-0.8,0.5-1.2c0-0.8-0.3-1.4-0.8-1.9s-1.3-0.8-2.2-0.8c-1,0-2,0.2-2.9,0.6s-1.8,0.9-2.6,1.5
		c-0.7,0.5-1.4,1.1-2,1.8c-0.6,0.7-1.2,1.4-1.8,2.1h3.3c1.6,0,2.9-0.1,4.1-0.3C191.1,45.8,192,45.5,192.7,45.2z"/>
	<path d="M227.4,42.4l-7.7,4.5c-0.8,0.4-1.6,0.9-2.5,1.5c-0.9,0.6-2,1.2-3.4,1.9c-1.3,0.6-2.5,1.2-3.6,1.6s-2.2,0.6-3.3,0.6h-4.9
		v-6.2h5.1c2,0,3.7-0.3,5.3-0.8c1.6-0.5,3.5-1.4,5.9-2.7c-1.3-0.6-2.8-1.1-4.6-1.5s-3.6-0.6-5.3-0.6H205v-5.3h3.6c2,0,4,0.4,6.2,1.1
		s4.8,2,7.8,3.8l4.8-2.6V42.4z M219.2,32.9h-2.5v-2.6h2.5V32.9z"/>
	<path d="M45,95h-2.7c-0.9,0-1.8-0.3-2.7-0.8c-0.9-0.5-1.6-1.1-2-1.8c-0.4,0.7-1.1,1.4-2,1.9c-0.9,0.5-1.9,0.7-3.1,0.7h-7.1
		c-4.5,0-8-0.9-10.3-2.6c-2.3-1.7-3.5-4.3-3.5-7.6c0-1.1,0.1-2.2,0.3-3.2c0.2-1,0.3-1.6,0.4-1.7h4.5V80c-0.1,0.3-0.2,0.9-0.3,1.9
		s-0.2,1.9-0.2,2.7c0,1.3,0.8,2.3,2.4,3.1c1.6,0.7,3.9,1.1,6.8,1.1c1.6,0,3,0,4.2,0s1.9,0,2.2,0c1,0,1.9-0.2,2.6-0.7
		c0.7-0.4,1-1.1,1-2c0-1,0-1.7-0.1-2.3c-0.1-0.6-0.1-0.9-0.1-1.1v-0.2h4.5c0.1,0.3,0.1,0.8,0.2,1.5c0.1,0.8,0.1,1.5,0.1,2.2
		c0,0.7,0.2,1.3,0.7,1.8c0.5,0.5,1.1,0.8,1.8,0.8H45V95z M25.8,77.3h-2.5v-2.6h2.5V77.3z M30.3,77.3h-2.5v-2.6h2.5V77.3z"/>
	<path d="M58.9,75.7c0.8,1.1,1.5,2.3,2,3.8c0.5,1.5,0.7,3.2,0.7,5.1c0,1.6-0.4,3.1-1.1,4.4c-0.7,1.3-1.6,2.4-2.7,3.3
		c-1.1,0.9-2.3,1.6-3.6,2S51.7,95,50.4,95h-6.6v-6.2H50c1.5,0,2.8-0.2,4-0.7c1.1-0.5,2-1.1,2.5-2c-0.2,0-0.6,0.1-1.2,0.1
		c-0.6,0.1-1.1,0.1-1.7,0.1c-1,0-2-0.2-2.8-0.5c-0.8-0.3-1.5-0.8-2.1-1.4c-0.6-0.6-1-1.2-1.3-2c-0.3-0.8-0.4-1.6-0.4-2.5
		c0-2,0.6-3.7,1.8-5.1c1.2-1.4,2.6-2.2,4.3-2.2c1.1,0,2.1,0.3,3.1,0.8C57.1,73.9,58,74.7,58.9,75.7z M53.5,68.5H51v-2.6h2.5V68.5z
		 M56.6,81.5c-0.1-0.9-0.5-1.8-1.2-2.5c-0.7-0.7-1.3-1.1-1.9-1.1c-0.5,0-1,0.2-1.3,0.6c-0.3,0.4-0.5,0.9-0.5,1.4
		c0,0.5,0.2,1,0.6,1.3c0.4,0.4,0.9,0.5,1.6,0.5c0.4,0,1,0,1.6-0.1C56.1,81.6,56.5,81.6,56.6,81.5z"/>
	<path d="M83.1,95L83.1,95c-0.7,0-1.4,0-2.2-0.1c-0.8-0.1-1.3-0.1-1.5-0.2c-0.7,1.6-1.7,2.9-3.1,3.9s-2.8,1.8-4.4,2.3
		c-1.6,0.5-3.1,0.9-4.4,1.1s-2.7,0.3-3.9,0.3v-5.9c1.6,0,3.2-0.1,4.6-0.4c1.4-0.3,2.5-0.6,3.4-0.9c1-0.4,1.7-0.6,2.1-0.9
		c0.4-0.2,0.6-0.4,0.7-0.4c-2.8-0.3-4.9-1.2-6.4-2.7c-1.5-1.5-2.2-3.2-2.2-5.2c0-2.1,0.7-4,2-5.5s2.9-2.3,4.8-2.3c2.1,0,3.8,1,5.3,3
		c1.4,2,2.3,4.5,2.5,7.6c0.2,0,0.6,0,1.3,0.1c0.7,0,1.1,0,1.4,0h0.1V95z M75.3,88.4c-0.1-1.6-0.5-2.8-1.1-3.7s-1.1-1.4-1.7-1.4
		c-0.6,0-1.1,0.2-1.5,0.7c-0.4,0.5-0.6,1.1-0.6,1.8c0,0.7,0.5,1.3,1.5,1.7C72.8,88,74,88.3,75.3,88.4z"/>
	<path d="M118.2,84.7c0,3.3-0.7,5.9-2.2,7.7c-1.5,1.8-3.5,2.7-6,2.7c-1.1,0-2.1-0.3-3-0.8s-1.6-1.1-2-1.8c-0.5,0.7-1.2,1.4-2,1.8
		c-0.8,0.5-2,0.7-3.4,0.7c-1.1,0-2.1-0.3-3-0.8s-1.6-1.1-2-1.8c-0.5,0.7-1.3,1.3-2.2,1.8c-0.9,0.4-2,0.7-3.3,0.7h-7.1v-6.2h7.1
		c0.9,0,1.7-0.3,2.2-1s0.9-1.6,0.9-2.6v-2.6h4.7v2.6c0,1,0.2,1.8,0.7,2.6s1.1,1.1,2,1.1c1,0,1.7-0.3,2.3-1c0.5-0.7,0.8-1.6,0.8-2.6
		v-2.6h4.7v2.6c0,1,0.2,1.9,0.7,2.6c0.5,0.7,1.1,1.1,2,1.1c1,0,1.8-0.4,2.4-1.1c0.7-0.7,1-1.7,1-2.9v-5.1h4.7V84.7z"/>
	<path d="M137.1,90.2c0,2.4-0.5,4.4-1.6,6.1s-2.6,3-4.7,4c-1.6,0.7-3.2,1.3-4.6,1.6c-1.4,0.3-3.2,0.5-5.4,0.5v-5.9
		c1,0,1.9-0.1,3-0.2s2-0.3,3-0.5c1.2-0.3,2.2-0.6,3.1-1.1c0.9-0.5,1.5-1.1,1.9-1.8c-0.1,0-0.4,0.1-0.9,0.1c-0.5,0.1-0.8,0.1-0.9,0.1
		c-2.3,0-4.1-0.7-5.5-2c-1.4-1.4-2.1-3.1-2.1-5.1c0-2.2,0.7-4,2-5.6c1.4-1.5,2.9-2.3,4.8-2.3c2.2,0,4,1.1,5.5,3.4
		C136.3,83.6,137.1,86.6,137.1,90.2z M132.1,87.2c-0.2-1.1-0.6-2-1-2.6c-0.5-0.6-1-1-1.6-1c-0.6,0-1.1,0.2-1.6,0.6
		c-0.5,0.4-0.7,0.9-0.7,1.5c0,0.4,0.2,0.8,0.7,1.2c0.4,0.4,1.1,0.5,2,0.5c0.5,0,0.9,0,1.4-0.1C131.7,87.3,132,87.3,132.1,87.2z"/>
	<path d="M156.7,95H155c-0.4,0-0.9-0.1-1.5-0.2s-1-0.3-1.3-0.5c-0.6,1.6-1.5,2.9-2.5,3.9s-2.3,1.8-3.7,2.4c-1.4,0.6-2.7,1-3.9,1.3
		c-1.2,0.2-2.2,0.4-3,0.4V96c0.7,0,1.6-0.1,2.7-0.3s2.2-0.5,3.1-0.9c1.1-0.5,1.9-1.1,2.5-1.8c0.5-0.7,0.8-1.6,0.8-2.7
		c0-0.8-0.1-1.6-0.3-2.4c-0.2-0.8-0.4-1.5-0.7-2.2c-0.3-0.7-0.5-1.3-0.7-1.7c-0.2-0.4-0.4-0.7-0.4-0.9v-0.2h4.9
		c0.2,0.4,0.5,1,0.8,1.7c0.3,0.7,0.6,1.3,0.7,1.7c0.2,0.7,0.5,1.2,1.1,1.6c0.5,0.4,1.2,0.6,2.1,0.6h0.9V95z"/>
	<path d="M177.3,95h-2.6c-0.9,0-1.7-0.1-2.4-0.4c-0.7-0.3-1.3-0.6-1.8-1c-0.6,0.5-1.3,0.8-2,1S166.9,95,166,95h-10.5v-6.2h10.7
		c0.8,0,1.4-0.1,1.9-0.4c0.5-0.3,0.7-0.6,0.7-1c0-0.3-0.2-0.7-0.5-1.1c-0.4-0.4-1-0.9-1.8-1.5l-4.7-3.3c-1.4-0.9-2.3-1.7-2.8-2.4
		c-0.5-0.7-0.7-1.4-0.7-2.1c0-1,0.4-1.9,1.2-2.7c0.8-0.8,1.9-1.5,3.4-2.1l12.1-4.6v5.2l-10,3.4c-0.6,0.2-1,0.4-1.3,0.6
		c-0.3,0.2-0.4,0.4-0.4,0.5c0,0.2,0.2,0.5,0.6,0.8s0.9,0.7,1.5,1.1l4.3,2.9c1.2,0.8,2.1,1.7,2.7,2.6s0.9,2,0.9,3.3
		c0.3,0.3,0.7,0.5,1.1,0.7c0.4,0.2,0.8,0.2,1.3,0.2h1.9V95z"/>
	<path d="M186.3,84.6c0,3.2-0.7,5.7-2,7.5c-1.4,1.9-3.1,2.8-5.4,2.8h-2.8v-6.2h2.1c1,0,1.9-0.4,2.5-1.1c0.6-0.7,0.9-1.7,0.9-3v-5.1
		h4.7V84.6z M179.5,100.1H177v-2.6h2.5V100.1z M184,100.1h-2.5v-2.6h2.5V100.1z"/>
	<path d="M200.8,95h-1.6c-2.3,0-4.1-0.9-5.4-2.8c-1.3-1.9-2-4.4-2-7.5V68.1h4.7v16.5c0,0.7,0.1,1.3,0.3,1.8c0.2,0.5,0.4,0.9,0.7,1.3
		c0.3,0.3,0.7,0.6,1.1,0.7s0.9,0.3,1.3,0.3h0.9V95z"/>
	<path d="M219.2,87.6c0,2.2-0.7,4.1-2,5.5c-1.3,1.4-3,2.2-5,2.2c-1,0-1.9-0.2-2.8-0.5c-0.9-0.4-1.7-0.8-2.4-1.5
		c-0.7,0.6-1.4,1-2.2,1.3c-0.8,0.3-1.7,0.4-2.8,0.4h-2.5v-6.2h2.6c0.8,0,1.3-0.3,1.5-0.8c0.3-0.5,0.4-1.2,0.5-1.9
		c0.1-2.2,0.8-4,2-5.3s2.8-2.1,4.8-2.1c1.1,0,2.1,0.2,3.1,0.6c1,0.4,1.9,1,2.6,1.8c0.8,0.8,1.4,1.7,1.8,2.8
		C219,85,219.2,86.2,219.2,87.6z M214.5,86.9c0-0.8-0.3-1.6-1-2.2c-0.7-0.6-1.4-0.9-2.3-0.9c-0.7,0-1.3,0.2-1.7,0.7
		c-0.5,0.5-0.7,1.1-0.7,1.8c0,0.7,0.3,1.3,0.9,1.9s1.4,0.8,2.3,0.8c0.7,0,1.3-0.2,1.8-0.6C214.3,88.1,214.5,87.6,214.5,86.9z"/>
	<path d="M260.5,95h-3.2c-0.2,0-0.5,0-0.7,0c-0.2,0-0.5-0.1-0.8-0.2c-0.5,2.4-1.7,4.2-3.7,5.5c-2,1.3-4.4,2-7.4,2
		c-1.6,0-3.1-0.2-4.5-0.6c-1.4-0.4-2.6-1-3.6-1.9c-1-0.9-1.8-2-2.4-3.4c-0.6-1.4-0.8-3.1-0.8-5c0-1.6,0.1-3,0.3-4.3
		c0.2-1.3,0.3-2,0.3-2.1h4.7v0.1c-0.1,0.6-0.3,1.5-0.5,2.8c-0.2,1.3-0.3,2.5-0.3,3.5c0,1.5,0.6,2.6,1.7,3.4c1.2,0.8,2.8,1.2,4.9,1.2
		c2.1,0,3.7-0.4,4.9-1.1s1.8-1.9,1.8-3.4c0-1.5-0.1-2.8-0.2-3.9c-0.1-1.2-0.2-1.9-0.4-2.4V85h5.2c0,1.3,0.2,2.3,0.6,2.8
		c0.4,0.6,0.8,0.9,1.4,0.9h2.4V95z M246,80.9h-2.5v-2.6h2.5V80.9z"/>
	<path d="M279,87.6c0,2.2-0.7,4.1-2,5.5c-1.3,1.4-3,2.2-5,2.2c-1,0-1.9-0.2-2.8-0.5c-0.9-0.4-1.7-0.8-2.4-1.5
		c-0.7,0.6-1.4,1-2.2,1.3c-0.8,0.3-1.7,0.4-2.8,0.4h-2.5v-6.2h2.6c0.8,0,1.3-0.3,1.5-0.8c0.3-0.5,0.4-1.2,0.5-1.9
		c0.1-2.2,0.8-4,2-5.3s2.8-2.1,4.8-2.1c1.1,0,2.1,0.2,3.1,0.6c1,0.4,1.9,1,2.6,1.8c0.8,0.8,1.4,1.7,1.8,2.8
		C278.7,85,279,86.2,279,87.6z M274.3,86.9c0-0.8-0.3-1.6-1-2.2c-0.7-0.6-1.4-0.9-2.3-0.9c-0.7,0-1.3,0.2-1.7,0.7
		c-0.5,0.5-0.7,1.1-0.7,1.8c0,0.7,0.3,1.3,0.9,1.9s1.4,0.8,2.3,0.8c0.7,0,1.3-0.2,1.8-0.6C274.1,88.1,274.3,87.6,274.3,86.9z"/>
	<path d="M80.4,130.8h-4.5c-0.7-0.8-1.3-1.7-1.9-2.6c-0.6-0.9-1-1.8-1.4-2.9c-0.4-1-0.7-2-0.9-3.2c-0.2-1.2-0.3-2.4-0.3-3.6
		c0-1.4,0.1-2.6,0.3-3.7s0.5-2.1,0.9-3.1c0.4-1,0.9-2,1.4-2.9c0.6-0.9,1.2-1.8,1.9-2.6h4.5v0.4c-0.7,0.6-1.3,1.3-1.9,2.1
		c-0.6,0.8-1.1,1.7-1.7,2.7c-0.5,1-0.9,2.1-1.2,3.3c-0.3,1.2-0.5,2.5-0.5,3.9c0,1.4,0.1,2.7,0.4,3.9c0.3,1.2,0.7,2.3,1.2,3.3
		c0.5,1,1,1.9,1.6,2.7c0.6,0.8,1.2,1.5,1.9,2.1V130.8z"/>
	<path d="M99.7,125.7h-0.2c-0.6,0-1.1-0.2-1.8-0.6c-0.6-0.4-1.2-1-1.8-1.7c-0.4,0.8-1,1.4-1.8,1.9c-0.7,0.5-1.6,0.7-2.5,0.7
		c-0.7,0-1.3-0.1-2-0.4c-0.7-0.3-1.3-0.6-1.8-1.1c-0.5,1.9-1.3,3.4-2.5,4.5s-2.5,1.8-4,2.1v-4.5c0.6-0.2,1.1-0.4,1.6-0.7
		c0.5-0.3,0.9-0.7,1.3-1.2c0.4-0.5,0.7-1.2,1-2.1c0.2-0.8,0.4-2,0.6-3.4c0.2-1.7,0.7-3.1,1.5-4c0.8-0.9,1.9-1.4,3.4-1.4
		c1.1,0,2,0.3,2.9,0.7c0.9,0.5,1.7,1.3,2.3,2.6c0.3,0.6,0.6,1.1,1,1.7c0.3,0.5,0.6,1,0.9,1.3c0.3,0.4,0.6,0.6,0.9,0.8
		c0.3,0.2,0.6,0.3,0.8,0.3h0.2V125.7z M93.3,119.8c0-0.6-0.2-1.1-0.7-1.5c-0.5-0.4-1-0.6-1.7-0.6c-0.5,0-0.9,0.2-1.2,0.5
		s-0.5,0.8-0.5,1.3c0,0.5,0.2,1,0.7,1.4c0.4,0.4,1,0.6,1.6,0.6c0.5,0,1-0.1,1.3-0.4C93.1,120.7,93.3,120.3,93.3,119.8z"/>
	<path d="M106.2,118.2c0,2.3-0.5,4.1-1.5,5.5c-1,1.3-2.3,2-3.9,2h-2v-4.5h1.5c0.8,0,1.4-0.3,1.8-0.8c0.5-0.5,0.7-1.3,0.7-2.2v-3.7
		h3.4V118.2z M101.3,129.4h-1.8v-1.8h1.8V129.4z M104.5,129.4h-1.8v-1.8h1.8V129.4z"/>
	<path d="M122.5,125.7h-2.3c-0.8,0-1.4-0.1-1.9-0.4c-0.5-0.3-0.9-0.7-1.2-1.3c-0.4,0.6-0.8,1.1-1.4,1.3c-0.6,0.3-1.2,0.4-2,0.4h-4.2
		v-4.5h4.3c0.6,0,1.1-0.1,1.5-0.3s0.6-0.5,0.6-0.7c0-0.1,0-0.2-0.1-0.3c0-0.2-0.1-0.3-0.1-0.5l-2.3-8h3.8l1.9,6.7
		c0.1,0.4,0.2,0.8,0.4,1.3c0.2,0.4,0.3,0.8,0.4,1c0.2,0.3,0.3,0.5,0.5,0.6c0.2,0.1,0.5,0.2,0.8,0.2h1.3V125.7z"/>
	<path d="M136.7,125.7H135c-0.6,0-1.1-0.1-1.6-0.2c-0.5-0.1-1-0.3-1.5-0.5c-0.5-0.2-0.9-0.4-1.2-0.6c-0.4-0.2-0.7-0.4-1.1-0.7
		c-0.4,0.2-0.7,0.5-1,0.7c-0.3,0.2-0.7,0.4-1.3,0.6c-0.5,0.2-1,0.4-1.4,0.5s-1,0.2-1.7,0.2h-2.5v-4.5h1.6c0.7,0,1.3,0,1.7-0.1
		c0.5-0.1,0.8-0.2,1-0.2c-0.4-0.4-0.8-0.9-1-1.4c-0.3-0.5-0.4-1.1-0.4-1.8c0-0.7,0.1-1.3,0.3-1.9c0.2-0.5,0.6-1,1-1.5
		c0.4-0.4,0.9-0.7,1.6-1c0.6-0.2,1.3-0.3,2.1-0.3c1.6,0,2.8,0.4,3.7,1.3c0.9,0.9,1.3,2.1,1.3,3.5c0,0.6-0.1,1.1-0.4,1.6
		c-0.3,0.5-0.6,1-1,1.3c0.1,0,0.2,0.1,0.3,0.1c0.1,0,0.3,0,0.5,0.1c0.3,0,0.6,0.1,0.9,0.1c0.3,0,0.6,0.1,1,0.1h0.8V125.7z
		 M128.7,110.7h-1.8v-1.8h1.8V110.7z M131.2,118c0-0.4-0.2-0.7-0.5-1s-0.7-0.4-1.2-0.4c-0.5,0-0.9,0.1-1.2,0.4
		c-0.3,0.3-0.4,0.6-0.4,1c0,0.3,0.2,0.6,0.6,0.9s0.7,0.5,1.1,0.7c0.4-0.2,0.8-0.4,1.1-0.7C131.1,118.6,131.2,118.3,131.2,118z
		 M131.9,110.7h-1.8v-1.8h1.8V110.7z"/>
	<path d="M143.2,118.2c0,2.2-0.5,4-1.4,5.4s-2.3,2.1-3.9,2.1h-2v-4.5h1.5c0.3,0,0.7-0.1,1-0.2c0.3-0.1,0.6-0.3,0.8-0.5
		c0.2-0.3,0.4-0.6,0.6-0.9c0.1-0.3,0.2-0.8,0.2-1.3v-11.9h3.4V118.2z"/>
	<path d="M150.6,125.7h-3.4v-19.4h3.4V125.7z"/>
	<path d="M168.6,125.7h-1.2c-1.6,0-2.9-0.7-3.9-2.1c-1-1.4-1.4-3.2-1.4-5.4v-11.9h3.4v11.9c0,0.5,0.1,1,0.2,1.3
		c0.1,0.4,0.3,0.7,0.5,0.9c0.2,0.2,0.5,0.4,0.8,0.5c0.3,0.1,0.6,0.2,1,0.2h0.6V125.7z"/>
	<path d="M178.2,125.7H177c-0.9,0-1.6-0.2-2.3-0.6c-0.6-0.4-1.1-0.8-1.4-1.3c-0.3,0.6-0.8,1-1.4,1.3c-0.6,0.3-1.3,0.5-2.2,0.5h-2
		v-4.5h1.5c0.7,0,1.3-0.3,1.8-0.8c0.5-0.5,0.7-1.2,0.7-2.2v-1.5h3.4v1.5c0,0.9,0.2,1.6,0.7,2.2s1,0.8,1.8,0.8h0.7V125.7z
		 M171.8,129.4H170v-1.8h1.8V129.4z M175,129.4h-1.8v-1.8h1.8V129.4z"/>
	<path d="M193.1,125.7h-1.9c-0.6,0-1.2-0.1-1.7-0.3c-0.5-0.2-1-0.4-1.3-0.7c-0.5,0.3-0.9,0.6-1.4,0.7c-0.5,0.2-1.1,0.3-1.8,0.3h-7.6
		v-4.5h7.7c0.6,0,1-0.1,1.3-0.3c0.3-0.2,0.5-0.5,0.5-0.7c0-0.2-0.1-0.5-0.4-0.8c-0.3-0.3-0.7-0.6-1.3-1.1l-3.4-2.4
		c-1-0.7-1.7-1.3-2-1.7s-0.5-1-0.5-1.5c0-0.7,0.3-1.3,0.9-1.9c0.6-0.6,1.4-1.1,2.5-1.5l8.8-3.3v3.7l-7.2,2.4
		c-0.4,0.1-0.7,0.3-0.9,0.4c-0.2,0.1-0.3,0.3-0.3,0.4c0,0.1,0.1,0.3,0.4,0.6s0.6,0.5,1.1,0.8l3.1,2.1c0.9,0.6,1.5,1.2,1.9,1.9
		c0.4,0.7,0.6,1.4,0.6,2.4c0.2,0.2,0.5,0.4,0.8,0.5c0.3,0.1,0.6,0.2,0.9,0.2h1.4V125.7z"/>
	<path d="M199.6,118.2c0,2.3-0.5,4.1-1.5,5.5c-1,1.3-2.3,2-3.9,2h-2v-4.5h1.5c0.8,0,1.4-0.3,1.8-0.8c0.5-0.5,0.7-1.3,0.7-2.2v-3.7
		h3.4V118.2z M194.7,129.4h-1.8v-1.8h1.8V129.4z M198,129.4h-1.8v-1.8h1.8V129.4z"/>
	<path d="M207.2,131h-4.1v-1.2h0.9c-0.2-0.1-0.4-0.3-0.5-0.5c-0.1-0.2-0.2-0.5-0.2-0.7c0-0.5,0.2-1,0.6-1.4c0.4-0.4,0.9-0.6,1.5-0.6
		c0.4,0,0.7,0,1,0.1s0.4,0.1,0.4,0.1v1.3h-0.1c-0.1,0-0.3-0.1-0.6-0.2s-0.5-0.1-0.7-0.1c-0.4,0-0.6,0.1-0.8,0.2s-0.3,0.3-0.3,0.6
		c0,0.4,0.2,0.7,0.6,0.9c0.4,0.2,0.8,0.4,1.3,0.4h0.9V131z M207,125.7h-3.4v-19.4h3.4V125.7z"/>
	<path d="M219.2,118.5c0,1.3-0.1,2.5-0.3,3.6c-0.2,1.2-0.5,2.2-0.9,3.2c-0.4,1-0.9,2-1.4,2.9c-0.6,0.9-1.2,1.8-1.9,2.6h-4.5v-0.4
		c0.6-0.6,1.3-1.3,1.9-2.1c0.6-0.8,1.2-1.7,1.6-2.7c0.5-1,0.9-2.1,1.2-3.3c0.3-1.2,0.4-2.4,0.4-3.9c0-1.4-0.2-2.7-0.5-3.9
		s-0.7-2.3-1.2-3.3c-0.5-1-1.1-1.9-1.7-2.7c-0.6-0.8-1.2-1.5-1.9-2.1v-0.4h4.5c0.7,0.9,1.3,1.7,1.9,2.6c0.6,0.9,1,1.8,1.4,2.9
		c0.4,0.9,0.6,1.9,0.9,3.1C219.1,115.9,219.2,117.2,219.2,118.5z"/>
</g>
<line class="st0" x1="301.2" y1="141" x2="301.2" y2="11.7"/>
</svg>
