<?xml version="1.0" encoding="utf-8"?>
<!-- Generator: Adobe Illustrator 25.0.1, SVG Export Plug-In . SVG Version: 6.00 Build 0)  -->
<svg version="1.1" id="Layer_1" xmlns="http://www.w3.org/2000/svg" xmlns:xlink="http://www.w3.org/1999/xlink" x="0px" y="0px"
	 viewBox="0 0 648.9 662.9" style="enable-background:new 0 0 648.9 662.9;" xml:space="preserve">
<style type="text/css">
	.st0{stroke:#000000;stroke-width:3.0814;stroke-linecap:round;stroke-linejoin:round;stroke-miterlimit:15.4068;}
	.st1{stroke:#000000;stroke-width:3.8517;stroke-linecap:round;stroke-linejoin:round;stroke-miterlimit:15.4068;}
</style>
<g>
	<path class="st0" d="M619.7,284.2C608.4,155.8,529,82.6,474.4,14.2l-4.1,46.9c0,0,0,0,0.1,0.1l0,0.3c7.2,37.3,26,115.2,36.8,163.8
		c2.8,13.2,7.3,29.3,7.4,22.8l0.3-5c0.3-12.4-1.6-27-4-39.3c-8.1-36.3-20.7-89-29.5-128.9c53.7,64.7,123.5,136.4,134.1,256.3
		c0,0.5,0.1,1,0.1,1.5c-4.4,8.4-7.3,12.1-16.9,20.7c-15.6,14.1-41.4,25-63.7,24.6c7.2-16.3,8-29.2,8.5-33.3
		c3.4-26.5-10.8-68.9-32.9-63.2c-17.2,4.4-28.5,20.2-37,47.5c-0.6,2.1-1,4.2-1.5,6.4c-1.7,7-3.1,17.9-2.9,26.2
		c0.5,17,2.8,27.8,5.8,35c-14.2,6.4-30.3,10.4-44,7.2c-30.8-7.2-18.5-49.7-37.5-45.6c-28.8,9.1-61.5,53.3-79.5,94.3
		c-79.4,175.9-204.6,165.2-254.6,87c-13.5-22.8-18.2-59.7-6-88.9c6.9-15.4,21.9-35.1,42.3-53.2c9.5-8.4,23.8-18.9,26.5-24.1
		c0,0,0-0.1,0-0.1l0.2-0.3l0.2-0.4c4.3-8.4-27.4,14.5-37.3,23.4c-23.8,21.2-35.7,41.8-43.3,61.8c-13.6,39.1-11.1,92.5,9.3,128.3
		c49.4,81.6,193.1,92.1,271.8-87.1c25.2-58.3,45.6-75.5,57.9-85.8c31-24.6,11.2,30.1,42,37.3c19.7,4.6,44.2-5.7,61.3-16.6
		c7.8-4.9,13.3-8.8,19.5-13.9c3.1,1,6.5,1.9,10.5,2.8c24.4,6.3,57.7-6,76.4-23c10.1-9.2,12.8-12.7,17.6-22.2
		c5.8-12.7,8.4-24.6,9.7-33.9l0.6-3.2C620.9,324,621.4,298.7,619.7,284.2z M515.6,370.5c-1.3,1.1-2.5,2.1-3.7,3.1
		c-6.4-2.1-11.3-4.5-16.1-7.7c-6.2-4.9-8.8-7.7-11.6-12.7c0.5-1.2,1.1-2.3,1.6-3.5c5.9-10.6,12.3-18.1,19.1-21.4
		c11.3-5.5,23.7,7.9,27.2,19.5C534.2,353.4,524.8,363.1,515.6,370.5z"/>
	<path class="st1" d="M435.5,170.8c12.6,6.3,31.4,15.5,44.3,23l-19.6,42c-12.8-7.5-31.7-16.7-44.3-23L435.5,170.8z"/>
	<path class="st1" d="M171.8,368.9c12.6,6.3,32.5,18.9,45.4,26.4l-22.3,39.9c-12.8-7.5-30.1-18-42.7-24.3L171.8,368.9z"/>
	<path class="st1" d="M242.7,355.5c12.6,6.3,31.1,18.1,43.9,25.6l-20,42c-12.8-7.5-33.8-20.9-46.4-27.2L242.7,355.5z"/>
</g>
</svg>
