<?xml version="1.0" encoding="utf-8"?>
<!-- Generator: Adobe Illustrator 25.0.1, SVG Export Plug-In . SVG Version: 6.00 Build 0)  -->
<svg version="1.1" id="Layer_1" xmlns="http://www.w3.org/2000/svg" xmlns:xlink="http://www.w3.org/1999/xlink" x="0px" y="0px"
	 viewBox="0 0 867 662.9" style="enable-background:new 0 0 867 662.9;" xml:space="preserve">
<style type="text/css">
	.st0{fill:#FF0000;stroke:#FF0000;stroke-width:3.0814;stroke-linecap:round;stroke-linejoin:round;stroke-miterlimit:15.4068;}
	.st1{fill:#FF0000;stroke:#FF0000;stroke-width:3.8517;stroke-linecap:round;stroke-linejoin:round;stroke-miterlimit:15.4068;}
</style>
<g id="surface4515">
	<path class="st0" d="M828.9,314.6c-10.4-117.6-83-184.5-133-247.1l-3.8,43c0,0,0,0,0,0.1l0,0.2c6.6,34.1,23.8,105.5,33.7,149.9
		c2.6,12.1,6.7,26.8,6.8,20.8l0.3-4.6c0.2-11.4-1.5-24.7-3.6-36c-7.4-33.2-18.9-81.5-27-118c49.1,59.2,113.1,124.8,122.7,234.6
		c0,0.4,0,0.9,0.1,1.4c-4,7.7-6.7,11-15.5,19c-14.3,12.9-37.9,22.9-58.3,22.5c6.6-14.9,7.4-26.7,7.8-30.4c3.1-24.3-9.9-63-30.1-57.8
		c-15.7,4-26.1,18.5-33.8,43.5c-0.5,1.9-1,3.9-1.3,5.9c-1.5,6.5-2.8,16.4-2.6,24c0.5,15.6,2.5,25.4,5.3,32.1
		c-13,5.9-27.7,9.5-40.3,6.6c-28.2-6.5-17-45.5-34.3-41.8c-26.3,8.3-56.3,48.8-72.8,86.3C476.5,629.8,361.9,620,316.1,548.4
		c-12.4-20.9-16.7-54.6-5.5-81.4c6.3-14.1,20.1-32.1,38.7-48.7c8.7-7.7,21.8-17.3,24.2-22.1c0,0,0-0.1,0-0.1l0.1-0.3l0.2-0.4
		c3.9-7.7-25.1,13.3-34.1,21.4c-21.8,19.4-32.7,38.3-39.7,56.5c-12.5,35.8-10.1,84.7,8.5,117.4c45.3,74.7,176.7,84.3,248.8-79.8
		c23.1-53.4,41.7-69.1,53-78.5c28.4-22.5,10.2,27.6,38.4,34.1c18.1,4.2,40.4-5.2,56.1-15.2c7.1-4.5,12.2-8.1,17.8-12.7
		c2.8,0.9,5.9,1.8,9.6,2.6c22.4,5.7,52.8-5.5,69.9-21c9.3-8.4,11.8-11.6,16.1-20.3c5.3-11.6,7.7-22.6,8.8-31l0.6-2.9
		C830,351,830.5,327.8,828.9,314.6z M733.6,393.5c-1.2,1-2.3,1.9-3.4,2.8c-5.9-1.9-10.3-4.1-14.8-7.1c-5.6-4.5-8.1-7.1-10.6-11.6
		c0.5-1.1,1-2.1,1.5-3.2c5.4-9.7,11.2-16.6,17.4-19.6c10.3-5.1,21.7,7.2,24.9,17.9C750.7,377.9,742.1,386.7,733.6,393.5z"/>
	<path class="st0" d="M477.5,203c-14.1-28.9-44.3-53.1-47.7-45l-3.8,43c0.1-0.3,0.2-0.5,0.4-0.7l-0.2,1.3
		c2.3,10.9,8.1,36.1,8.1,30.1l0.3-4.6c0.1-6.9-1-17.6-2.5-27.4c10.5,3.3,31,20.9,41.8,43.1c2.6,5.3,4.5,11.2,6,15.9
		c-5,8.5-11.5,15.3-17.3,20.3c-18,15.3-47.7,29.1-72,38.9c2.8-5.5,5.5-11.6,8-18.5c5.8-16.1,7.9-37,7.7-61.6c0-2.4-0.1-4.9-0.1-7.3
		l-0.1-7.7c0-1.8,0-3.2,0-4.3c0-2.3-0.1-3.4-0.3-3.5l-0.1,33.9c0-0.3,0-0.8,0-1.4l0.1-32c0-0.2,0-0.4,0-0.5c0-0.1,0-0.3,0-0.4
		c0-13.2-7.4-17-35-3.7c-17.5,8.5-31.6,18.3-42.7,29.9c5.9-24.9,8.9-64.2,9-77.8c1.3-110.7-36.8-155.6-77.9-139.2
		c-39,21-32,100.8-27.1,85l0.1-0.3c0.1-0.3,0.2-0.7,0.3-1.1l2.6-8.1c0.5-1.4,1-2.8,1.5-4.3c3.8-10.9,9-25.7,22.7-31.1
		c41.1-16.4,63.4,29.6,63.2,139.7c0,8.2-0.9,31.1-0.5,44.4c-20.6,25.8-28.5,59.8-26,105.9c-4.4,2.4-8.5,4.8-12.1,7
		c-15.9,9.7-31.7,17.2-42.5,47.7c-17.7,50.5-24.3,98.6-59.8,135.3c-12.7,13.3-34.3,30.1-58.8,42.9c-14.2,7.6-38,19.2-49,24.1
		c-3.7,1.7-5.7,2.5-7,3.2c-5.2,2.6,2.9,1.9,6.4,1.3c12.9-2.3,66.6-11.4,88.1-17.4c17-5.1,27.8-11.5,35.6-18.2
		c36-31.6,35.5-82.6,49.9-128.5c9.5-30.4,15.5-38.3,29.7-48.1c6.4-4.4,14.8-9,23.2-13.3c1.8,13.2,4.3,27.2,7.3,42.1l3.7-21.2
		c-1.3-8.9-2.5-17.2-3.3-24.8c4.1-2.1,8-4,11.5-5.8c0,0,0,0,0.1,0l0,0.1c17.6-3.6,35.4-8.8,53.5-15.7c25.5-9.8,62.1-25.5,83-43.2
		c7.4-6.3,15.9-15.6,21.1-27.7c3-7.1,6.1-17.2,7.7-27c0,0,0,0,0,0c0.2-1.2,0.4-2.4,0.5-3.6c0.1-0.6,0.1-1.3,0.2-2l0-4.1
		c0.2-2.1,0.3-4.4,0.4-6.9C485.4,235.1,483,214.3,477.5,203z M345.4,326.3c-6.3,3.9-12.6,8.1-19.2,11.5c-6.1,3.2-13.5,7-20.9,11
		c1.6-47,23.2-62.2,73.3-91.4c10.6-6.2,17.1-8,21-8.2c-0.8,3.4-1.7,6.6-2.7,9.3C384.2,292.6,369,310.6,345.4,326.3z"/>
	<path class="st0" d="M484.5,263.2c-0.1,1.7-0.3,2.9-0.5,3.6C484.2,265.6,484.3,264.4,484.5,263.2z"/>
	<path class="st0" d="M485,256.5l-0.1,1.6c-0.1,1.7-0.3,3.4-0.5,5.1c0.1-0.6,0.1-1.3,0.2-2l0-4.1c0.2-2.1,0.3-4.4,0.4-6.9
		C485.2,251.2,485.1,253.7,485,256.5z"/>
	<path class="st0" d="M406,214.5v0.4l-0.1,33.9c0-0.3,0-0.8,0-1.4l0.1-32c0-0.2,0-0.4,0-0.5C406,214.8,406,214.7,406,214.5z"/>
	<path class="st0" d="M406,214.5v0.4l-0.1,33.9c0-0.3,0-0.8,0-1.4l0.1-32c0-0.2,0-0.4,0-0.5C406,214.8,406,214.7,406,214.5z"/>
	<path class="st0" d="M236.6,95l-4.3,13.5c0.1-0.3,0.2-0.7,0.3-1.1l2.6-8.1C235.6,97.9,236.1,96.5,236.6,95z"/>
	<path class="st0" d="M236.6,95l-4.3,13.5c0.1-0.3,0.2-0.7,0.3-1.1l2.6-8.1C235.6,97.9,236.1,96.5,236.6,95z"/>
	<path class="st0" d="M406.4,237.8c0-2.4-0.1-4.9-0.1-7.3l-0.1-7.7c0-1.8,0-3.2,0-4.3L406.4,237.8z"/>
	<path class="st0" d="M406,214.9l-0.1,33.9c0-0.3,0-0.8,0-1.4l0.1-32C406,215.3,406,215.1,406,214.9C406,214.9,406,214.9,406,214.9z
		"/>
	<path class="st0" d="M406.4,237.8c0-2.4-0.1-4.9-0.1-7.3l-0.1-7.7c0-1.8,0-3.2,0-4.3L406.4,237.8z"/>
	<path class="st0" d="M150.3,237.7c-0.9,4-1.9,9.1-3,14.6c3.4,4.5,7.9,8.7,14,11.5c17.2,8.1,42.1,5.4,50.3,22.7
		c3.6,6.8,9.3,18.2,9.6,47.5l0.1,10.2l0.1,8c0,0,0,0,0,0c0,0.4,0,0.8,0,1.2c-0.1,14.9-1.7,33.2-7.3,49.3
		c-31.9,92.5-111.3,84.8-152.8,16.8C25.6,359.9,15,283.3,64.6,182c5.8-12.8,17.1-32.9,15.1-17.9l-0.3,2.2
		c-1.2,6.3-3.8,13.5-7.7,22.2C29.9,270.4,37,342.5,61.2,376.4c45.7,66.2,115.9,57.3,145.8-16.2c2.8-7,5.1-14.7,6.9-21.8
		c-2.5-3.4-5.6-6.8-9.8-9.4c-15.1-8.4-40.5-4.3-57.5-24.6c-12.2-12.9-11.6-48.8-10.8-59.2c0.1-0.9,0.1-1.6,0.2-2.1l0.5-7.4
		c0.1-2.4,0.2-4,0.3-5.1c0-0.1,0-0.3,0-0.4c0-0.3,0-0.5,0.1-0.8c0,0,0,0,0,0c1.2-12.5,3.4-24.2,6.1-33.9c13.7-45,50.5-99.8,76.1-66
		c5,9.4,5.9,25.4,3.5,39.6l-2,8.7c-3.5,13.6-6.8-5.8-16.8-8.5C183.5,163.7,160.8,192.3,150.3,237.7z"/>
	<path class="st0" d="M136.7,230.5c-0.1,1.1-0.1,2.8-0.3,5.1L136,243c-0.1,0.5-0.1,1.2-0.2,2.1C135.9,240.2,136.2,235.3,136.7,230.5
		z"/>
	<path class="st0" d="M136.7,230.1c0-0.3,0-0.6,0.1-0.8C136.8,229.6,136.7,229.8,136.7,230.1z"/>
	<path class="st0" d="M221.4,353.4c0-0.4,0-0.8,0-1.2C221.5,353.2,221.5,353.5,221.4,353.4z"/>
	<path class="st0" d="M221.4,352.2l-0.1-8C221.4,346.7,221.4,349.4,221.4,352.2z"/>
	<path class="st1" d="M660.3,210.7c11.5,5.8,28.8,14.2,40.5,21.1l-17.9,38.4c-11.7-6.9-29-15.3-40.5-21.1L660.3,210.7z"/>
	<path class="st1" d="M419,392c11.5,5.8,29.8,17.3,41.5,24.2l-20.4,36.5c-11.7-6.9-27.5-16.5-39-22.3L419,392z"/>
	<path class="st1" d="M483.8,379.8c11.5,5.8,28.4,16.5,40.2,23.4l-18.3,38.4c-11.7-6.9-30.9-19.1-42.4-24.9L483.8,379.8z"/>
	<path class="st1" d="M403.5,73c11.5,5.8,28.8,14.2,40.5,21.1l-17.9,38.4c-11.7-6.9-29-15.3-40.5-21.1L403.5,73z"/>
	<path class="st1" d="M74.2,493.2c11.5,5.8,29.8,17.3,41.5,24.2l-20.4,36.5c-11.7-6.9-27.5-16.5-39-22.3L74.2,493.2z"/>
	<path class="st1" d="M139,481c11.5,5.8,28.4,16.5,40.2,23.4l-18.3,38.4c-11.7-6.9-30.9-19.1-42.4-24.9L139,481z"/>
	<path class="st1" d="M366.9,131c11.5,5.8,28.8,14.2,40.5,21.1l-17.9,38.4c-11.7-6.9-29-15.3-40.5-21.1L366.9,131z"/>
	<path class="st0" d="M550.8,77.9l-4.5,11c-8.7-8.6-14.2-10.2-18-7.3c-10.3,7.8-8.5,50.6-16.9,74.6l-3.9,3.2
		C502.5,135.7,494.5,113,483,99l-3.9,5.5c-16.5-3.1-20.2-12.8-17.8-17.3l6.1-11.3c0.3-0.6,0.8-1.1,1.5-1.4c26.9,3.3,39.3,45.7,42,72
		c5.5-27.7,7.7-71.8,19.2-81.3C535,61,541.6,63.8,550.8,77.9z"/>
	<path class="st0" d="M670.2,120.5c-36.2,13.5-72.7,26.6-109.1,39.9l-2.1,12.1c36.3-13.2,72.9-26.4,109.1-39.9L670.2,120.5z"/>
	<path class="st0" d="M623.2,199.9c-36.2,13.5-72.7,26.6-109.1,39.9l-2.1,12.1c36.3-13.2,72.9-26.4,109.1-39.9L623.2,199.9z"/>
</g>
</svg>
