<?xml version="1.0" encoding="utf-8"?>
<!-- Generator: Adobe Illustrator 25.1.0, SVG Export Plug-In . SVG Version: 6.00 Build 0)  -->
<svg version="1.1" id="Layer_1" xmlns="http://www.w3.org/2000/svg" xmlns:xlink="http://www.w3.org/1999/xlink" x="0px" y="0px"
	 viewBox="0 0 612 151.2" style="enable-background:new 0 0 612 151.2;" xml:space="preserve">
<style type="text/css">
	.st0{fill:#E30613;}
	.st1{fill:none;stroke:#000000;stroke-width:4;stroke-miterlimit:10;}
</style>
<g>
	<path class="st0" d="M358.5,55.7l-0.9,0.5c-2.4,0-4.3-0.4-5.5-1.2c-1.2-0.8-2.1-2-2.4-3.4c-1.2,0.6-2.8,0.9-4.7,0.9
		c-1,0-1.9-0.1-2.7-0.4c-0.9-0.2-1.6-0.6-2.3-1.1c-0.7-0.5-1.2-1.1-1.6-1.8c-0.4-0.7-0.6-1.6-0.6-2.6c0-1.1,0.3-2.1,0.9-3.1
		c0.6-1,1.4-1.8,2.5-2.7c1.1-0.8,2.3-1.6,3.7-2.2c1.4-0.7,2.9-1.2,4.5-1.7v-2.4l3-0.6l-0.2,12.4c0,1.3,0.1,2.4,0.3,3.2
		c0.2,0.8,0.5,1.4,1,1.8c0.4,0.4,1,0.7,1.7,0.8c0.7,0.1,1.5,0.2,2.5,0.2l0.9,0.5V55.7z M340.6,46.1c0,0.8,0.4,1.5,1.1,2
		c0.8,0.5,1.9,0.7,3.3,0.7c0.8,0,1.5-0.1,2.3-0.2c0.7-0.1,1.4-0.3,2-0.5v-7.7c-2.2,0.6-4,1.3-5.2,1.9c-1.3,0.7-2.2,1.3-2.7,1.9
		C340.9,44.9,340.6,45.5,340.6,46.1z M341.9,28.8c0.5-0.6,0.9-1.1,1.3-1.5c0.4-0.4,0.9-0.9,1.4-1.3c0.5,0.4,1,0.9,1.5,1.3
		c0.4,0.4,0.9,0.9,1.3,1.5c-0.5,0.6-1,1.1-1.4,1.5c-0.5,0.4-0.9,0.9-1.3,1.3c-0.4-0.4-0.9-0.8-1.4-1.3
		C342.8,29.9,342.4,29.4,341.9,28.8z M348.3,28.8c0.5-0.6,0.9-1.1,1.3-1.5s0.9-0.9,1.4-1.3c0.5,0.4,1,0.9,1.5,1.3
		c0.4,0.4,0.9,0.9,1.3,1.5c-0.5,0.6-1,1.1-1.4,1.5c-0.5,0.4-0.9,0.9-1.3,1.3c-0.4-0.4-0.9-0.8-1.4-1.3
		C349.2,29.9,348.8,29.4,348.3,28.8z"/>
	<path class="st0" d="M356.6,55.7v-2.9l0.9-0.5c1,0,1.9,0,2.7-0.1c0.8-0.1,1.4-0.3,1.9-0.6c0.5-0.3,0.9-0.7,1.2-1.3s0.5-1.4,0.6-2.4
		c0.1-0.5,0.1-1.1,0.1-1.7c0-0.6,0-1.2,0.1-1.9c0-0.7,0-1.5,0-2.5l2.9-0.5c0,0.7,0,1.4,0,2.3c0,0.9,0.1,1.9,0.1,3.2
		c0,1.2,0.2,2.3,0.7,3.1c0.4,0.8,1.1,1.4,2,1.8c0.9,0.4,2.2,0.6,3.7,0.6l0.9,0.5v2.9l-0.9,0.5c-2,0-3.7-0.3-5.1-0.9
		s-2.3-1.5-2.9-2.7c-0.5,0.9-1.1,1.6-1.8,2.1c-0.7,0.5-1.5,0.9-2.5,1.1c-1,0.2-2.2,0.3-3.6,0.3L356.6,55.7z M357.2,62.4
		c0.5-0.6,0.9-1.1,1.3-1.5c0.4-0.4,0.9-0.9,1.4-1.3c0.5,0.4,1,0.9,1.5,1.3c0.4,0.4,0.9,0.9,1.3,1.5c-0.5,0.6-1,1.1-1.4,1.5
		c-0.5,0.4-0.9,0.9-1.3,1.3c-0.4-0.4-0.9-0.8-1.4-1.3S357.7,62.9,357.2,62.4z M363.6,62.4c0.5-0.6,0.9-1.1,1.3-1.5s0.9-0.9,1.4-1.3
		c0.5,0.4,1,0.9,1.5,1.3c0.4,0.4,0.9,0.9,1.3,1.5c-0.5,0.6-1,1.1-1.4,1.5c-0.5,0.4-0.9,0.9-1.3,1.3c-0.4-0.4-0.9-0.8-1.4-1.3
		S364.1,62.9,363.6,62.4z"/>
	<path class="st0" d="M372.6,55.7v-2.9l0.9-0.5h0.5c1.3,0,2.6-0.1,3.8-0.2c1.2-0.1,2.3-0.3,3.5-0.6c1.2-0.3,2.4-0.7,3.6-1.1
		c1.2-0.5,2.6-1.1,4-1.8c1.4-0.7,3.1-1.6,4.9-2.6c-1.7-0.6-3.2-1.2-4.4-1.6c-1.2-0.4-2.2-0.8-3-1.1c-0.8-0.3-1.5-0.5-2.1-0.6
		c-0.6-0.1-1-0.2-1.5-0.3c-0.4,0-0.8-0.1-1.2-0.1c-0.8,0-1.5,0.2-2.3,0.7c-0.7,0.4-1.5,1-2.2,1.8l-2-2.1c0.5-0.8,1.2-1.4,1.9-2
		c0.7-0.6,1.5-1.1,2.4-1.5c0.8-0.4,1.7-0.5,2.5-0.5c0.5,0,1.1,0,1.7,0.1c0.6,0.1,1.3,0.3,2.1,0.5c0.8,0.2,1.8,0.6,2.9,1
		c1.2,0.4,2.6,1,4.2,1.6c1.7,0.7,3.7,1.5,6,2.4l-0.5,2.8c-0.5,0.3-1,0.6-1.5,0.9c-0.5,0.3-1,0.6-1.5,0.8c0.4,0.8,0.9,1.5,1.5,2
		c0.6,0.5,1.4,0.9,2.2,1.1c0.8,0.2,1.7,0.3,2.6,0.3l0.9,0.5v2.9l-0.9,0.5c-2.4,0-4.3-0.5-5.7-1.5c-1.4-1-2.5-2.5-3.2-4.5
		c-1.7,0.9-3.2,1.7-4.5,2.4c-1.4,0.7-2.7,1.2-3.9,1.7c-1.2,0.5-2.4,0.8-3.5,1.1c-1.2,0.3-2.3,0.5-3.5,0.6c-1.2,0.1-2.5,0.2-3.9,0.2
		L372.6,55.7z M383.3,32.2c0.5-0.6,0.9-1.1,1.3-1.5c0.4-0.4,0.9-0.9,1.4-1.3c0.5,0.4,1,0.9,1.5,1.3c0.4,0.4,0.9,0.9,1.3,1.5
		c-0.5,0.6-1,1.1-1.4,1.5c-0.5,0.4-0.9,0.9-1.3,1.3c-0.4-0.4-0.9-0.8-1.4-1.3C384.2,33.3,383.7,32.8,383.3,32.2z"/>
	<path class="st0" d="M400.8,55.7v-2.9l0.9-0.5c1.6,0,2.8-0.2,3.7-0.5c0.9-0.3,1.5-0.8,1.9-1.5c0.4-0.7,0.6-1.5,0.6-2.4
		c0-0.4,0-1,0.1-1.7c0-0.7,0-1.3,0-2l2.7-0.5c0,0.3,0,0.7,0,1.1s0,0.8,0,1.3s0,0.8,0,1.2c0,0.4,0,0.6,0,0.8c0.1,1.5,0.5,2.6,1.2,3.2
		c0.8,0.7,1.9,1,3.3,1c1.5,0,2.7-0.4,3.4-1.1c0.7-0.7,1.2-1.9,1.2-3.5c0-0.1,0-0.4,0-0.8c0-0.4,0-0.8,0-1.2c0-0.4,0-0.9,0-1.3
		c0-0.4,0-0.7,0-0.9l2.8-0.5c0,0.6,0,1.2,0,1.9c0,0.6,0,1.2,0,1.8c0,0.6,0,1,0,1.4c0.1,1.5,0.4,2.6,1.1,3.2c0.7,0.6,1.6,1,2.8,1
		c0.9,0,1.7-0.2,2.3-0.5c0.6-0.3,1-0.8,1.3-1.6c0.3-0.8,0.5-1.8,0.5-3.2c0-0.3,0-0.9,0.1-1.8c0-0.8,0-1.8,0-3l2.9-0.5
		c0,0.4,0,0.7,0,1c0,0.3,0,0.6,0,1c0,0.4,0,0.8,0,1.3c0,0.5,0,1.1,0.1,1.9c0,1.2,0.2,2.1,0.6,2.9c0.4,0.8,1,1.4,1.9,1.7
		c0.9,0.4,2.1,0.6,3.6,0.6l0.9,0.5v2.9l-0.9,0.5c-3.9,0-6.5-1.2-7.7-3.5c-0.5,1.1-1.2,2-2.1,2.6c-0.9,0.6-2.1,0.9-3.7,0.9
		c-1.3,0-2.4-0.2-3.4-0.7c-1-0.4-1.8-1.2-2.4-2.4c-0.6,1-1.4,1.8-2.4,2.3c-1,0.5-2.2,0.8-3.5,0.8c-1.4,0-2.7-0.2-3.7-0.7
		c-1.1-0.5-1.9-1.3-2.6-2.4c-0.7,1.2-1.6,2-2.8,2.4c-1.1,0.5-2.5,0.7-4.2,0.7L400.8,55.7z"/>
	<path class="st0" d="M439.2,55.7v-2.9l0.9-0.5c1.3,0,2.4-0.1,3.3-0.3s1.6-0.4,2.1-0.7c0.3-0.2,0.6-0.4,0.7-0.6
		c0.1-0.2,0.2-0.6,0.2-1.1c0-0.5-0.1-1.1-0.2-1.9c-0.1-0.8-0.3-1.7-0.5-2.7c-0.2-1-0.4-2-0.7-3c-0.2-1-0.5-2-0.7-2.8l3.6-1.5
		c0.5,1.7,0.8,3.5,1.1,5.4c0.3,1.9,0.4,3.8,0.4,5.6c0,1.5-0.2,2.8-0.6,3.8s-1,1.8-1.9,2.3c-0.8,0.6-1.8,1-2.9,1.2
		c-1.2,0.2-2.5,0.4-3.9,0.4L439.2,55.7z M443,31.4c0.5-0.6,0.9-1.1,1.3-1.5s0.9-0.9,1.4-1.3c0.5,0.4,1,0.9,1.5,1.3
		c0.4,0.4,0.9,0.9,1.3,1.5c-0.5,0.6-1,1.1-1.4,1.5c-0.5,0.4-0.9,0.9-1.3,1.3c-0.4-0.4-0.9-0.8-1.4-1.3
		C443.9,32.4,443.5,31.9,443,31.4z"/>
	<path class="st0" d="M464.8,55l-0.4-3.8c0.9,0.2,1.8,0.3,2.6,0.4c0.8,0.1,1.6,0.2,2.4,0.3c0.6-1,1.3-2,1.9-2.9v-23l3.5-0.7
		l-0.7,19.7c1-1.3,1.9-2.4,2.7-3.2c0.8-0.8,1.6-1.5,2.4-1.9c0.8-0.5,1.5-0.8,2.3-1c0.8-0.2,1.6-0.3,2.4-0.3c1.2,0,2.2,0.2,3.1,0.6
		c0.9,0.4,1.7,1,2.4,1.6c0.7,0.7,1.2,1.4,1.7,2.3c0.4,0.8,0.8,1.6,1,2.5s0.3,1.6,0.3,2.2c0,2-0.6,3.7-1.7,4.9s-2.7,2.2-4.9,2.8
		c-2.2,0.6-4.8,0.9-8,0.9c-1.7,0-3.3,0-4.9-0.1c-1.6-0.1-3.1-0.2-4.5-0.4C467.1,55.5,465.9,55.3,464.8,55z M483.5,42.4
		c-1,0-1.9,0.2-2.8,0.5c-0.9,0.3-1.8,0.8-2.6,1.6c-0.9,0.7-1.8,1.7-2.7,3c-0.9,1.2-2,2.8-3.1,4.7c0.9,0.1,1.8,0.1,2.8,0.1
		c1,0,2,0,3.2,0c2.1,0,3.9-0.1,5.3-0.3s2.6-0.5,3.5-0.9c0.9-0.4,1.5-0.8,1.9-1.3c0.4-0.5,0.6-1,0.6-1.5c0-0.5-0.1-1.1-0.4-1.8
		c-0.3-0.7-0.7-1.3-1.2-1.9c-0.5-0.6-1.2-1.1-1.9-1.5C485.3,42.6,484.5,42.4,483.5,42.4z"/>
	<path class="st0" d="M496.6,63c3.2-0.5,5.8-1.3,7.9-2.4c2-1.1,3.5-2.6,4.4-4.4h-2.6c-1.9,0-3.5-0.3-4.8-0.9s-2.4-1.4-3.2-2.4
		c-0.8-1.1-1.2-2.3-1.2-3.8c0-1,0.1-1.9,0.4-2.8c0.3-0.9,0.6-1.8,1.1-2.6c0.5-0.8,1-1.6,1.7-2.2c0.6-0.6,1.3-1.1,2.1-1.5
		c0.7-0.4,1.5-0.5,2.3-0.5c1,0,1.9,0.2,2.7,0.7c0.8,0.4,1.6,1,2.3,1.8c0.7,0.8,1.2,1.7,1.7,2.7c0.5,1,0.8,2.1,1.1,3.2
		c0.3,1.2,0.4,2.3,0.4,3.5c0,0.3,0,0.6,0,0.9h2.8l0.9,0.5v2.9l-0.9,0.5h-3.5c-0.5,1.7-1.2,3.1-2.2,4.4c-1,1.2-2.1,2.3-3.4,3.1
		c-1.3,0.8-2.7,1.5-4.2,1.9c-1.5,0.5-3,0.8-4.6,0.9L496.6,63z M506.6,52.3h3.2c0-0.3,0-0.5,0-0.8c0-0.7-0.1-1.5-0.3-2.2
		c-0.2-0.8-0.4-1.5-0.8-2.2c-0.4-0.7-0.8-1.3-1.2-1.9c-0.5-0.6-1-1-1.5-1.3c-0.5-0.3-1.1-0.5-1.7-0.5s-1.2,0.2-1.7,0.5
		c-0.5,0.3-1,0.7-1.3,1.2c-0.4,0.5-0.7,1-0.9,1.6c-0.2,0.6-0.3,1.1-0.3,1.7c0,0.7,0.2,1.4,0.7,2c0.5,0.6,1.2,1.1,2.2,1.4
		C503.9,52.1,505.1,52.3,506.6,52.3z"/>
	<path class="st0" d="M514.6,55.7v-2.9l0.9-0.5h2.8c0.7-1.2,1.4-2.3,2.1-3.3v-23l3.5-0.7l-0.7,19.7c1-1.3,1.9-2.4,2.7-3.2
		c0.8-0.8,1.6-1.5,2.4-1.9s1.5-0.8,2.3-1c0.8-0.2,1.6-0.3,2.4-0.3c1.2,0,2.2,0.2,3.1,0.6c0.9,0.4,1.7,1,2.4,1.6
		c0.7,0.7,1.2,1.4,1.7,2.3c0.4,0.8,0.8,1.6,1,2.5s0.3,1.6,0.3,2.2c0,1.5-0.3,2.9-1,4c0.5,0.2,1.2,0.3,1.9,0.4
		c0.8,0.1,1.8,0.2,2.9,0.2l0.9,0.5v2.9l-0.9,0.5c-1.5,0-2.9-0.1-4.2-0.4s-2.4-0.8-3.5-1.6c-1.2,0.7-2.7,1.2-4.5,1.5
		c-1.8,0.3-3.8,0.5-6.2,0.5h-11.6L514.6,55.7z M532.7,42.4c-1,0-1.9,0.2-2.8,0.5c-0.9,0.3-1.8,0.9-2.7,1.6c-0.9,0.7-1.8,1.8-2.7,3
		c-0.9,1.3-2,2.9-3.1,4.7h6.1c2.1,0,3.9-0.1,5.3-0.3c1.4-0.2,2.6-0.5,3.5-0.9s1.5-0.8,1.9-1.3c0.4-0.5,0.6-1,0.6-1.5
		c0-0.5-0.1-1.1-0.4-1.8c-0.3-0.7-0.7-1.3-1.2-1.9c-0.5-0.6-1.2-1.1-1.9-1.5S533.7,42.4,532.7,42.4z"/>
	<path class="st0" d="M544.7,55.7v-2.9l0.9-0.5h0.5c1.3,0,2.6-0.1,3.8-0.2c1.2-0.1,2.3-0.3,3.5-0.6c1.2-0.3,2.4-0.7,3.6-1.1
		c1.2-0.5,2.6-1.1,4-1.8c1.4-0.7,3.1-1.6,4.9-2.6c-1.7-0.6-3.2-1.2-4.4-1.6c-1.2-0.4-2.2-0.8-3-1.1c-0.8-0.3-1.5-0.5-2.1-0.6
		c-0.6-0.1-1-0.2-1.5-0.3c-0.4,0-0.8-0.1-1.2-0.1c-0.8,0-1.5,0.2-2.3,0.7c-0.7,0.4-1.5,1-2.2,1.8l-2-2.1c0.5-0.8,1.2-1.4,1.9-2
		c0.7-0.6,1.5-1.1,2.4-1.5c0.8-0.4,1.7-0.5,2.5-0.5c0.5,0,1.1,0,1.7,0.1c0.6,0.1,1.3,0.3,2.1,0.5c0.8,0.2,1.8,0.6,2.9,1
		c1.2,0.4,2.6,1,4.2,1.6c1.7,0.7,3.7,1.5,6,2.4l-0.5,2.8c-2,1.2-3.9,2.2-5.5,3.2c-1.7,0.9-3.2,1.7-4.5,2.4c-1.4,0.7-2.6,1.2-3.9,1.7
		c-1.2,0.5-2.4,0.8-3.5,1.1c-1.2,0.3-2.3,0.5-3.5,0.6c-1.2,0.1-2.5,0.2-3.9,0.2L544.7,55.7z M555.3,32.2c0.5-0.6,0.9-1.1,1.3-1.5
		c0.4-0.4,0.9-0.9,1.4-1.3c0.5,0.4,1,0.9,1.5,1.3c0.4,0.4,0.9,0.9,1.3,1.5c-0.5,0.6-1,1.1-1.4,1.5c-0.5,0.4-0.9,0.9-1.3,1.3
		c-0.4-0.4-0.9-0.8-1.4-1.3C556.3,33.3,555.8,32.8,555.3,32.2z"/>
	<path class="st0" d="M382,106.3l-0.9,0.5c-0.9,0-1.8-0.1-2.7-0.4c-0.9-0.3-1.7-0.8-2.4-1.5c0,0.2,0,0.4,0,0.5c0,0.2,0,0.4,0,0.5
		c0,2.1-0.4,3.9-1.3,5.4c-0.9,1.5-2.1,2.7-3.8,3.6s-3.7,1.3-6.1,1.3c-2.4,0-4.4-0.4-5.9-1.2c-1.5-0.8-2.6-1.9-3.3-3.4
		c-0.7-1.4-1.1-3.1-1.1-5c0-0.9,0.1-1.8,0.3-2.7c0.2-0.9,0.4-1.9,0.7-2.8c0.3-0.9,0.6-1.7,0.9-2.4l2.2,0.5c-0.2,0.8-0.4,1.5-0.5,2.3
		c-0.2,0.8-0.3,1.5-0.3,2.3c-0.1,0.7-0.1,1.4-0.1,1.9c0,2.3,0.7,3.9,2,4.9c1.3,1,3.3,1.5,5.7,1.5c1.7,0,3.1-0.2,4.3-0.7
		c1.2-0.5,2-1.1,2.6-2c0.6-0.9,0.9-1.8,0.9-2.9c0-0.6,0-1.2-0.1-1.8s-0.2-1.3-0.3-2.1s-0.3-1.8-0.6-2.9c-0.3-1.2-0.6-2.6-1.1-4.3
		l3.2-1.4c0.4,1.8,0.8,3.3,1.2,4.4c0.4,1.1,0.9,2,1.4,2.6c0.5,0.6,1.1,1,1.8,1.3s1.5,0.3,2.4,0.3l0.9,0.5V106.3z M362,90.5
		c0.5-0.6,0.9-1.1,1.3-1.5c0.4-0.4,0.9-0.9,1.4-1.3c0.5,0.4,1,0.9,1.5,1.3c0.4,0.4,0.9,0.9,1.3,1.5c-0.5,0.6-1,1.1-1.4,1.5
		c-0.5,0.4-0.9,0.9-1.3,1.3c-0.4-0.4-0.9-0.8-1.4-1.3S362.4,91.1,362,90.5z"/>
	<path class="st0" d="M379,112.9c0.5-0.6,0.9-1.1,1.3-1.5s0.9-0.9,1.4-1.3c0.5,0.4,1,0.9,1.5,1.3c0.4,0.4,0.9,0.9,1.3,1.5
		c-0.5,0.6-1,1.1-1.4,1.5c-0.5,0.4-0.9,0.9-1.3,1.3c-0.4-0.4-0.9-0.8-1.4-1.3S379.5,113.5,379,112.9z M380.1,106.3v-2.9l0.9-0.5
		c1.3,0,2.4-0.1,3.3-0.3s1.6-0.4,2.1-0.7c0.3-0.2,0.6-0.4,0.7-0.6c0.1-0.2,0.2-0.6,0.2-1.1c0-0.5-0.1-1.1-0.2-1.9
		c-0.1-0.8-0.3-1.7-0.5-2.7c-0.2-1-0.4-2-0.7-3c-0.2-1-0.5-2-0.7-2.8l3.6-1.5c0.5,1.7,0.8,3.5,1.1,5.4c0.3,1.9,0.4,3.8,0.4,5.6
		c0,1.5-0.2,2.8-0.6,3.8s-1,1.8-1.9,2.3c-0.8,0.6-1.8,1-2.9,1.2c-1.2,0.2-2.5,0.4-3.9,0.4L380.1,106.3z M385.4,112.9
		c0.5-0.6,0.9-1.1,1.3-1.5s0.9-0.9,1.4-1.3c0.5,0.4,1,0.9,1.5,1.3c0.4,0.4,0.9,0.9,1.3,1.5c-0.5,0.6-1,1.1-1.4,1.5
		c-0.5,0.4-0.9,0.9-1.3,1.3c-0.4-0.4-0.9-0.8-1.4-1.3S385.9,113.5,385.4,112.9z"/>
	<path class="st0" d="M406.3,106.3l-0.9,0.5c-2,0-3.7-0.3-5-0.9c-1.3-0.6-2.2-1.5-2.8-2.8c-0.6-1.3-0.9-3-0.9-5.1l0-21.6l3.5-0.7
		l-0.3,21.5c0,1,0.1,1.8,0.2,2.5c0.1,0.7,0.4,1.3,0.8,1.7c0.4,0.4,0.9,0.8,1.7,1c0.7,0.2,1.6,0.3,2.8,0.3l0.9,0.5V106.3z"/>
	<path class="st0" d="M404.4,106.3v-2.9l0.9-0.5c1,0,1.9,0,2.7-0.1c0.8-0.1,1.4-0.3,1.9-0.6c0.5-0.3,0.9-0.7,1.2-1.3
		s0.5-1.4,0.6-2.4c0.1-0.5,0.1-1.1,0.1-1.7c0-0.6,0-1.2,0.1-1.9c0-0.7,0-1.5,0-2.5l2.9-0.5c0,0.7,0,1.4,0,2.3c0,0.9,0.1,1.9,0.1,3.2
		c0,1.2,0.2,2.3,0.7,3.1c0.4,0.8,1.1,1.4,2,1.8c0.9,0.4,2.2,0.6,3.7,0.6l0.9,0.5v2.9l-0.9,0.5c-2,0-3.7-0.3-5.1-0.9
		s-2.3-1.5-2.9-2.7c-0.5,0.9-1.1,1.6-1.8,2.1c-0.7,0.5-1.5,0.9-2.5,1.1c-1,0.2-2.2,0.3-3.6,0.3L404.4,106.3z M408.2,112.9
		c0.5-0.6,0.9-1.1,1.3-1.5s0.9-0.9,1.4-1.3c0.5,0.4,1,0.9,1.5,1.3c0.4,0.4,0.9,0.9,1.3,1.5c-0.5,0.6-1,1.1-1.4,1.5
		c-0.5,0.4-0.9,0.9-1.3,1.3c-0.4-0.4-0.9-0.8-1.4-1.3S408.7,113.5,408.2,112.9z"/>
	<path class="st0" d="M420.4,106.3v-2.9l0.9-0.5c1,0,1.9,0,2.7-0.1c0.8-0.1,1.4-0.3,1.9-0.6c0.5-0.3,0.9-0.7,1.2-1.3
		s0.5-1.4,0.6-2.4c0.1-0.5,0.1-1.1,0.1-1.7c0-0.6,0-1.2,0.1-1.9c0-0.7,0-1.5,0-2.5l2.9-0.5c0,0.7,0,1.4,0,2.3c0,0.9,0.1,1.9,0.1,3.2
		c0,1.2,0.2,2.3,0.7,3.1c0.4,0.8,1.1,1.4,2,1.8c0.9,0.4,2.2,0.6,3.7,0.6l0.9,0.5v2.9l-0.9,0.5c-2,0-3.7-0.3-5.1-0.9
		s-2.3-1.5-2.9-2.7c-0.5,0.9-1.1,1.6-1.8,2.1c-0.7,0.5-1.5,0.9-2.5,1.1c-1,0.2-2.2,0.3-3.6,0.3L420.4,106.3z M423.3,85.4
		c0.5-0.6,0.9-1.1,1.3-1.5s0.9-0.9,1.4-1.3c0.5,0.4,1,0.9,1.5,1.3c0.4,0.4,0.9,0.9,1.3,1.5c-0.5,0.6-1,1.1-1.4,1.5
		c-0.5,0.4-0.9,0.9-1.3,1.3c-0.4-0.4-0.9-0.8-1.4-1.3S423.8,86,423.3,85.4z M429.7,85.4c0.5-0.6,0.9-1.1,1.3-1.5s0.9-0.9,1.4-1.3
		c0.5,0.4,1,0.9,1.5,1.3c0.4,0.4,0.9,0.9,1.3,1.5c-0.5,0.6-1,1.1-1.4,1.5c-0.5,0.4-0.9,0.9-1.3,1.3c-0.4-0.4-0.9-0.8-1.4-1.3
		S430.2,86,429.7,85.4z"/>
	<path class="st0" d="M436.4,106.3v-2.9l0.9-0.5c1,0,1.9-0.1,2.7-0.4c0.8-0.3,1.5-0.7,1.9-1.3c0.5-0.6,0.7-1.4,0.7-2.4l-0.1-22.3
		l3.5-0.7l-0.3,22.7c0,1.8-0.4,3.4-1.1,4.6c-0.7,1.2-1.7,2.2-2.9,2.8c-1.2,0.6-2.7,0.9-4.4,0.9L436.4,106.3z"/>
	<path class="st0" d="M452.9,106.9V76.4l3.5-0.7l-0.5,30.9L452.9,106.9z"/>
	<path class="st0" d="M492.9,106.3l-0.9,0.5c-2.4,0-4.3-0.4-5.5-1.2c-1.2-0.8-2.1-2-2.4-3.4c-1.2,0.6-2.8,0.9-4.7,0.9
		c-1,0-1.9-0.1-2.7-0.4c-0.9-0.2-1.6-0.6-2.3-1.1c-0.7-0.5-1.2-1.1-1.6-1.8c-0.4-0.7-0.6-1.6-0.6-2.6c0-1.1,0.3-2.1,0.9-3.1
		c0.6-1,1.4-1.8,2.5-2.7c1.1-0.8,2.3-1.6,3.7-2.2c1.4-0.7,2.9-1.2,4.5-1.7V85l3-0.6l-0.2,12.4c0,1.3,0.1,2.4,0.3,3.2
		c0.2,0.8,0.5,1.4,1,1.8c0.4,0.4,1,0.7,1.7,0.8c0.7,0.1,1.5,0.2,2.5,0.2l0.9,0.5V106.3z M475,96.6c0,0.8,0.4,1.5,1.1,2
		c0.8,0.5,1.9,0.7,3.3,0.7c0.8,0,1.5-0.1,2.3-0.2c0.7-0.1,1.4-0.3,2-0.5v-7.7c-2.2,0.6-4,1.3-5.2,1.9c-1.3,0.7-2.2,1.3-2.7,1.9
		C475.3,95.4,475,96,475,96.6z M476.3,79.3c0.5-0.6,0.9-1.1,1.3-1.5s0.9-0.9,1.4-1.3c0.5,0.4,1,0.9,1.5,1.3c0.4,0.4,0.9,0.9,1.3,1.5
		c-0.5,0.6-1,1.1-1.4,1.5c-0.5,0.4-0.9,0.9-1.3,1.3c-0.4-0.4-0.9-0.8-1.4-1.3C477.2,80.4,476.8,79.9,476.3,79.3z M482.7,79.3
		c0.5-0.6,0.9-1.1,1.3-1.5s0.9-0.9,1.4-1.3c0.5,0.4,1,0.9,1.5,1.3c0.4,0.4,0.9,0.9,1.3,1.5c-0.5,0.6-1,1.1-1.4,1.5
		c-0.5,0.4-0.9,0.9-1.3,1.3c-0.4-0.4-0.9-0.8-1.4-1.3C483.6,80.4,483.2,79.9,482.7,79.3z"/>
	<path class="st0" d="M506.8,106.3l-0.9,0.5c-1.8,0-3.3-0.3-4.5-0.9c-1.2-0.6-2.1-1.5-2.7-2.6c-0.7,1.3-1.7,2.2-2.8,2.7
		c-1.1,0.5-2.4,0.8-4,0.8l-0.9-0.5v-2.9l0.9-0.5c1.2,0,2.2-0.2,3-0.5s1.4-0.9,1.8-1.8c0.4-0.9,0.6-2.1,0.6-3.7l-0.1-20.3l3.5-0.7
		l-0.4,21.8c0,1.7,0.4,3,1.3,3.9c0.9,0.9,2.3,1.3,4.2,1.3l0.9,0.5V106.3z"/>
	<path class="st0" d="M505,106.3v-2.9l0.9-0.5c1,0,1.9,0,2.7-0.1c0.8-0.1,1.4-0.3,1.9-0.6c0.5-0.3,0.9-0.7,1.2-1.3s0.5-1.4,0.6-2.4
		c0.1-0.5,0.1-1.1,0.1-1.7c0-0.6,0-1.2,0.1-1.9c0-0.7,0-1.5,0-2.5l2.9-0.5c0,0.7,0,1.4,0,2.3c0,0.9,0.1,1.9,0.1,3.2
		c0,1.2,0.2,2.3,0.7,3.1c0.4,0.8,1.1,1.4,2,1.8c0.9,0.4,2.2,0.6,3.7,0.6l0.9,0.5v2.9l-0.9,0.5c-2,0-3.7-0.3-5.1-0.9
		s-2.3-1.5-2.9-2.7c-0.5,0.9-1.1,1.6-1.8,2.1c-0.7,0.5-1.5,0.9-2.5,1.1c-1,0.2-2.2,0.3-3.6,0.3L505,106.3z M505.6,112.9
		c0.5-0.6,0.9-1.1,1.3-1.5c0.4-0.4,0.9-0.9,1.4-1.3c0.5,0.4,1,0.9,1.5,1.3c0.4,0.4,0.9,0.9,1.3,1.5c-0.5,0.6-1,1.1-1.4,1.5
		c-0.5,0.4-0.9,0.9-1.3,1.3c-0.4-0.4-0.9-0.8-1.4-1.3S506,113.5,505.6,112.9z M511.9,112.9c0.5-0.6,0.9-1.1,1.3-1.5s0.9-0.9,1.4-1.3
		c0.5,0.4,1,0.9,1.5,1.3c0.4,0.4,0.9,0.9,1.3,1.5c-0.5,0.6-1,1.1-1.4,1.5c-0.5,0.4-0.9,0.9-1.3,1.3c-0.4-0.4-0.9-0.8-1.4-1.3
		S512.4,113.5,511.9,112.9z"/>
	<path class="st0" d="M536.7,106.3l-0.9,0.5c-1.8,0-3.3-0.3-4.5-0.9c-1.2-0.6-2.1-1.5-2.7-2.6c-0.7,1.3-1.7,2.2-2.8,2.7
		c-1.1,0.5-2.4,0.8-4,0.8l-0.9-0.5v-2.9l0.9-0.5c1.2,0,2.2-0.2,3-0.5s1.4-0.9,1.8-1.8c0.4-0.9,0.6-2.1,0.6-3.7l-0.1-20.3l3.5-0.7
		l-0.4,21.8c0,1.7,0.4,3,1.3,3.9c0.9,0.9,2.3,1.3,4.2,1.3l0.9,0.5V106.3z"/>
	<path class="st0" d="M534.8,106.3v-2.9l0.9-0.5h2.4c2.2,0,4.2,0,5.7-0.1c1.6-0.1,2.8-0.3,3.8-0.5c0.6-0.2,1.1-0.4,1.5-0.8
		c0.4-0.3,0.6-0.7,0.8-1.2c0.2-0.5,0.2-1.1,0.2-1.9c0-0.3,0-0.5,0-0.8c-0.6,0.5-1.4,1-2.4,1.3c-1,0.3-2,0.5-3.1,0.5
		c-1.6,0-2.9-0.3-4-0.9c-1.1-0.6-1.8-1.4-2.4-2.4c-0.5-1-0.8-2.1-0.8-3.2c0-0.9,0.1-1.8,0.4-2.7c0.2-0.9,0.6-1.8,1-2.6
		c0.4-0.8,1-1.5,1.6-2.2s1.3-1.1,2-1.5c0.7-0.4,1.5-0.5,2.3-0.5c1.2,0,2.3,0.3,3.3,0.9c1,0.6,1.9,1.5,2.6,2.7
		c0.7,1.2,1.3,2.6,1.7,4.2c0.4,1.6,0.6,3.4,0.6,5.4c0,1.5-0.1,2.9-0.3,3.9c-0.2,1.1-0.6,2-1,2.7c-0.4,0.7-1,1.3-1.6,1.7
		c-0.6,0.4-1.4,0.7-2.2,0.9c-0.9,0.2-1.8,0.4-2.7,0.5c-0.9,0.1-2,0.2-3.2,0.3c-1.2,0.1-2.5,0.1-4.1,0.1h-2.3L534.8,106.3z
		 M538.8,77.6c0.5-0.6,0.9-1.1,1.3-1.5s0.9-0.9,1.4-1.3c0.5,0.4,1,0.9,1.5,1.3c0.4,0.4,0.9,0.9,1.3,1.5c-0.5,0.6-1,1.1-1.4,1.5
		c-0.5,0.4-0.9,0.9-1.3,1.3c-0.4-0.4-0.9-0.8-1.4-1.3C539.8,78.7,539.3,78.1,538.8,77.6z M540.6,92.3c0,1,0.4,1.7,1.1,2.3
		c0.7,0.6,1.8,0.9,3.2,0.9c1.2,0,2.1-0.1,2.9-0.3c0.8-0.2,1.6-0.4,2.3-0.8c-0.2-1.4-0.5-2.7-1.1-3.8c-0.5-1.1-1.2-2-2-2.6
		c-0.8-0.6-1.6-0.9-2.5-0.9c-0.6,0-1.1,0.1-1.6,0.4c-0.5,0.3-0.9,0.7-1.3,1.2c-0.4,0.5-0.6,1.1-0.8,1.7
		C540.7,91,540.6,91.7,540.6,92.3z M545.2,77.6c0.5-0.6,0.9-1.1,1.3-1.5s0.9-0.9,1.4-1.3c0.5,0.4,1,0.9,1.5,1.3
		c0.4,0.4,0.9,0.9,1.3,1.5c-0.5,0.6-1,1.1-1.4,1.5c-0.5,0.4-0.9,0.9-1.3,1.3c-0.4-0.4-0.9-0.8-1.4-1.3
		C546.2,78.7,545.7,78.1,545.2,77.6z"/>
</g>
<g>
	<path class="st0" d="M41.2,74.7c-2.2,0-3.8-0.8-5.1-2.3c-1.2-1.5-1.9-3.6-1.9-6.2c0-1.2,0.1-2.3,0.3-3.3c0.2-1,0.5-2,0.9-3h2.9
		c-0.3,0.7-0.5,1.3-0.6,1.9c-0.1,0.6-0.2,1.2-0.3,1.8c-0.1,0.6-0.1,1.4-0.1,2.5c0,1.9,0.4,3.4,1.2,4.4c0.8,1,1.9,1.6,3.3,1.6h6.4
		c1.6,0,3-0.3,4.1-0.9c1.1-0.6,1.6-1.4,1.6-2.3c0-0.5-0.2-0.9-0.6-1.2s-1.1-0.6-1.9-0.9c-1.7-0.5-2.9-1-3.6-1.3s-1.1-0.9-1.5-1.4
		s-0.5-1.2-0.5-2c0-1.4,0.4-2.7,1.2-3.9c0.8-1.3,1.8-2.3,3.1-3.1c1.3-0.8,2.5-1.2,3.8-1.2c0.8,0,1.5,0.1,2.1,0.4s1.2,0.7,1.7,1.3
		s1.2,1.5,2,2.7c1,1.6,1.7,2.7,2.2,3.3c0.5,0.6,0.9,1,1.2,1.3s0.7,0.5,1.1,0.6c0.4,0.1,0.8,0.2,1.2,0.2h0.2c0.1,0,0.2,0,0.2,0.1V66
		c0,0.1-0.1,0.2-0.2,0.2h-0.2c-1,0-1.9-0.2-2.8-0.7c-0.9-0.4-1.8-1.2-2.8-2.2c-0.3-0.3-0.9-1.1-1.8-2.4c-1.1-1.6-2-2.7-2.6-3.3
		c-0.7-0.6-1.3-0.8-1.8-0.8c-0.6,0-1.3,0.2-2,0.7s-1.3,1.1-1.8,1.9c-0.5,0.7-0.7,1.4-0.7,2c0,0.4,0.2,0.7,0.6,1.1
		c0.4,0.3,1.1,0.6,2,0.9c1.6,0.5,2.8,0.9,3.5,1.3c0.7,0.4,1.2,0.8,1.6,1.3s0.5,1.1,0.5,1.7c0,4.7-3,7-8.9,7H41.2z M42.2,81.8
		c-0.5,0-1-0.2-1.4-0.5c-0.4-0.3-0.6-0.9-0.6-1.6c0-0.7,0.2-1.3,0.6-1.6c0.4-0.3,0.8-0.5,1.4-0.5c0.6,0,1,0.2,1.4,0.5
		c0.3,0.4,0.5,0.9,0.5,1.6c0,0.7-0.2,1.2-0.5,1.6C43.3,81.6,42.8,81.8,42.2,81.8z M48.2,81.8c-0.6,0-1.1-0.2-1.4-0.6
		c-0.3-0.4-0.5-0.9-0.5-1.6s0.2-1.2,0.5-1.6s0.8-0.6,1.4-0.6c0.6,0,1.1,0.2,1.4,0.6s0.5,0.9,0.5,1.5c0,0.6-0.2,1.2-0.5,1.5
		S48.8,81.8,48.2,81.8z"/>
	<path class="st0" d="M65,66.2c-0.1,0-0.2-0.1-0.2-0.2v-2.5c0-0.1,0.1-0.1,0.2-0.1h5.2c-0.6-0.7-1-1.5-1.3-2.5s-0.5-1.9-0.5-2.9
		c0-2.8,0.8-5,2.5-6.6c1.7-1.6,4-2.5,6.9-2.5h4.5v17.2H65z M79.5,63.4V51.8H78c-2,0-3.6,0.5-4.8,1.6c-1.1,1.1-1.7,2.6-1.7,4.6
		c0,3.6,1.6,5.4,4.7,5.4H79.5z M75.9,45.6c-0.6,0-1.1-0.2-1.4-0.6c-0.3-0.4-0.5-0.9-0.5-1.6c0-0.7,0.2-1.2,0.5-1.6
		c0.3-0.4,0.8-0.6,1.4-0.6c0.6,0,1.1,0.2,1.4,0.6s0.5,0.9,0.5,1.5c0,0.6-0.2,1.2-0.5,1.5S76.5,45.6,75.9,45.6z"/>
	<path class="st0" d="M101.8,67c0,2.4-0.7,4.3-2.1,5.6c-1.4,1.3-3.3,2-5.9,2c-2.3,0-4.4-0.6-6.2-1.8l1.4-2.4c0.7,0.4,1.5,0.7,2.3,1
		c0.8,0.3,1.7,0.4,2.6,0.4c1.6,0,2.8-0.4,3.7-1.3c0.9-0.9,1.3-2,1.3-3.4v-1h-3.4c-2.4,0-4.3-0.7-5.7-2.1c-1.3-1.4-2-3.4-2-6
		c0-2.8,0.9-5,2.6-6.6s4-2.5,6.9-2.5h4.5v14.4h2.8c0.1,0,0.2,0,0.2,0.1V66c0,0.1-0.1,0.2-0.2,0.2h-2.8V67z M98.9,63.4V51.8h-1.5
		c-2,0-3.6,0.6-4.8,1.7c-1.1,1.1-1.7,2.7-1.7,4.7c0,1.8,0.4,3.2,1.2,4.1c0.8,0.9,2,1.3,3.5,1.3H98.9z"/>
	<path class="st0" d="M104.3,66.2c-0.1,0-0.2-0.1-0.2-0.2v-2.5c0-0.1,0.1-0.1,0.2-0.1h14.5v-6.5c0-1.8-0.5-3.1-1.5-3.9
		s-2.6-1.2-4.8-1.2h-5.9v-2.9c0.7-1.6,1.8-3.2,3.1-4.7c1.3-1.5,2.8-2.9,4.4-4.1s3.2-2.1,4.7-2.7l1.1,2.7c-2.1,0.9-4.2,2.1-6.2,3.9
		c-2,1.7-3.4,3.4-4.2,5.1h3c3,0,5.3,0.6,6.9,1.9c1.6,1.3,2.4,3.1,2.4,5.5v9.8H104.3z"/>
	<path class="st0" d="M137.5,63.4H149c-0.4-3.2-1.3-5.9-2.6-8.1c-1.3-2.2-3.1-4.2-5.4-5.8l1.1-2.7c2.6,1.4,4.8,3.6,6.5,6.3
		c1.7,2.8,2.8,6.2,3.3,10.2h3.8c0.1,0,0.2,0,0.2,0.1V66c0,0.1-0.1,0.2-0.2,0.2h-18.2V63.4z"/>
	<path class="st0" d="M155.4,66.2c-0.1,0-0.2-0.1-0.2-0.2v-2.5c0-0.1,0.1-0.1,0.2-0.1h6.6V49h3.1v17.2H155.4z M157.7,73.3
		c-0.5,0-1-0.2-1.4-0.5c-0.4-0.3-0.6-0.9-0.6-1.6s0.2-1.3,0.6-1.6c0.4-0.3,0.8-0.5,1.4-0.5c0.6,0,1,0.2,1.4,0.5
		c0.3,0.4,0.5,0.9,0.5,1.6c0,0.7-0.2,1.2-0.5,1.6C158.7,73.1,158.3,73.3,157.7,73.3z M163.6,73.3c-0.6,0-1.1-0.2-1.4-0.6
		c-0.3-0.4-0.5-0.9-0.5-1.6s0.2-1.2,0.5-1.6c0.3-0.4,0.8-0.6,1.4-0.6c0.6,0,1.1,0.2,1.4,0.6c0.3,0.4,0.5,0.9,0.5,1.5
		s-0.2,1.2-0.5,1.5C164.7,73.1,164.2,73.3,163.6,73.3z"/>
	<path class="st0" d="M176.9,74.7c-2.3,0-4.4-0.6-6.2-1.8l1.4-2.4c0.7,0.4,1.5,0.7,2.3,1c0.8,0.3,1.7,0.4,2.6,0.4
		c1.6,0,2.8-0.4,3.7-1.3c0.9-0.9,1.3-2,1.3-3.4v-1h-3.4c-2.4,0-4.3-0.7-5.7-2.1c-1.3-1.4-2-3.4-2-6c0-2.8,0.9-5,2.6-6.6
		s4-2.5,6.9-2.5h4.5v18c0,2.4-0.7,4.3-2.1,5.6C181.4,74,179.5,74.7,176.9,74.7z M182,63.4V51.8h-1.5c-2,0-3.6,0.6-4.8,1.7
		c-1.1,1.1-1.7,2.7-1.7,4.7c0,1.8,0.4,3.2,1.2,4.1c0.8,0.9,2,1.3,3.5,1.3H182z"/>
	<path class="st0" d="M190,74.7c-1.1,0-2.3-0.3-3.5-1l0.9-2.4c0.6,0.3,1,0.4,1.4,0.5c0.4,0.1,0.8,0.1,1.2,0.1c1,0,1.8-0.4,2.4-1.3
		c0.6-0.9,0.9-2,0.9-3.4V49h2.9v18c0,2.4-0.5,4.3-1.6,5.6C193.5,74,191.9,74.7,190,74.7z"/>
	<path class="st0" d="M200.6,63.4h11.5c-0.4-3.2-1.3-5.9-2.6-8.1c-1.3-2.2-3.1-4.2-5.4-5.8l1.1-2.7c2.6,1.4,4.8,3.5,6.5,6.3
		c1.7,2.8,2.8,6.2,3.4,10.3v2.7h-14.4V63.4z"/>
	<path class="st0" d="M229.3,63.4h3.3V39.3h2.9v17.3c1.1-2.6,2.4-4.6,4.1-6s3.5-2,5.5-2c2.6,0,4.6,0.7,5.9,2.2c1.3,1.5,2,3.7,2,6.8
		v5.8h4.6c0.1,0,0.2,0,0.2,0.1V66c0,0.1-0.1,0.2-0.2,0.2h-28.3V63.4z M250.1,63.4v-5.6c0-2.2-0.5-3.8-1.4-4.8
		c-0.9-1-2.3-1.5-4.2-1.5c-1.7,0-3.4,0.8-4.9,2.3c-1.5,1.5-2.9,3.8-4.1,6.8v2.9H250.1z"/>
	<path class="st0" d="M257.2,66.2c-0.1,0-0.2-0.1-0.2-0.2v-2.5c0-0.1,0.1-0.1,0.2-0.1H272c-0.8-0.9-1.6-3-2.2-6.5
		c-0.3-2-0.8-3.5-1.5-4.3c-0.6-0.8-1.6-1.2-2.9-1.2c-1.6,0-3.3,0.5-5,1.4l-1.2-2.4c1-0.7,2-1.1,3-1.4c1-0.3,2.1-0.4,3.2-0.4
		c1.4,0,2.6,0.3,3.5,0.8c0.9,0.5,1.7,1.3,2.2,2.3c0.6,1,1,2.5,1.3,4.4c0.3,2.1,0.7,3.7,1.1,4.9c0.4,1.1,0.9,2,1.5,2.5v2.7H257.2z
		 M265.9,45.6c-0.6,0-1.1-0.2-1.4-0.6c-0.3-0.4-0.5-0.9-0.5-1.6c0-0.7,0.2-1.2,0.5-1.6c0.3-0.4,0.8-0.6,1.4-0.6
		c0.6,0,1.1,0.2,1.4,0.6c0.3,0.4,0.5,0.9,0.5,1.5c0,0.6-0.2,1.2-0.5,1.5C267,45.4,266.5,45.6,265.9,45.6z"/>
	<path class="st0" d="M29.3,112.9c-3.7-2.5-5.3-6.5-5.3-11.1v0c0-4.6,1.6-8.5,5.3-11.1l0.5,0.6c-2.5,2.1-3.9,6.2-3.9,10.5
		c0,4.3,1.4,8.4,3.9,10.5L29.3,112.9z"/>
	<path class="st0" d="M40.1,117.2c-2.2,0-3.8-0.8-5.1-2.3c-1.2-1.5-1.9-3.6-1.9-6.2c0-1.2,0.1-2.3,0.3-3.3c0.2-1,0.5-2,0.9-3h2.9
		c-0.3,0.7-0.5,1.3-0.6,1.9c-0.1,0.6-0.2,1.2-0.3,1.8c-0.1,0.6-0.1,1.4-0.1,2.5c0,1.9,0.4,3.4,1.2,4.4c0.8,1,1.9,1.6,3.3,1.6h6.4
		c1.6,0,3-0.3,4.1-0.9c1.1-0.6,1.6-1.4,1.6-2.3c0-0.5-0.2-0.9-0.6-1.2s-1.1-0.6-1.9-0.9c-1.7-0.5-2.9-1-3.6-1.3s-1.1-0.9-1.5-1.4
		s-0.5-1.2-0.5-2c0-1.4,0.4-2.7,1.2-3.9c0.8-1.3,1.8-2.3,3.1-3.1c1.3-0.8,2.5-1.2,3.8-1.2c0.8,0,1.5,0.1,2.1,0.4s1.2,0.7,1.7,1.3
		s1.2,1.5,2,2.7c1,1.6,1.7,2.7,2.2,3.3c0.5,0.6,0.9,1,1.2,1.3s0.7,0.5,1.1,0.6c0.4,0.1,0.8,0.2,1.2,0.2h0.2c0.1,0,0.2,0,0.2,0.1v2.5
		c0,0.1-0.1,0.2-0.2,0.2h-0.2c-1,0-1.9-0.2-2.8-0.7c-0.9-0.4-1.8-1.2-2.8-2.2c-0.3-0.3-0.9-1.1-1.8-2.4c-1.1-1.6-2-2.7-2.6-3.3
		c-0.7-0.6-1.3-0.8-1.8-0.8c-0.6,0-1.3,0.2-2,0.7s-1.3,1.1-1.8,1.9c-0.5,0.7-0.7,1.4-0.7,2c0,0.4,0.2,0.7,0.6,1.1
		c0.4,0.3,1.1,0.6,2,0.9c1.6,0.5,2.8,0.9,3.5,1.3c0.7,0.4,1.2,0.8,1.6,1.3s0.5,1.1,0.5,1.7c0,4.7-3,7-8.9,7H40.1z M41.2,124.3
		c-0.5,0-1-0.2-1.4-0.5c-0.4-0.3-0.6-0.9-0.6-1.6c0-0.7,0.2-1.3,0.6-1.6c0.4-0.3,0.8-0.5,1.4-0.5c0.6,0,1,0.2,1.4,0.5
		c0.3,0.4,0.5,0.9,0.5,1.6c0,0.7-0.2,1.2-0.5,1.6C42.2,124.1,41.8,124.3,41.2,124.3z M47.1,124.3c-0.6,0-1.1-0.2-1.4-0.6
		c-0.3-0.4-0.5-0.9-0.5-1.6s0.2-1.2,0.5-1.6s0.8-0.6,1.4-0.6c0.6,0,1.1,0.2,1.4,0.6s0.5,0.9,0.5,1.5c0,0.6-0.2,1.2-0.5,1.5
		S47.7,124.3,47.1,124.3z"/>
	<path class="st0" d="M86.4,108.7c-1,0-2-0.2-2.9-0.5s-1.8-1-2.7-1.9c-0.5,0.7-1.2,1.3-2,1.8s-1.8,0.7-3,0.7H64
		c-0.1,0-0.2-0.1-0.2-0.2v-2.5c0-0.1,0.1-0.1,0.2-0.1h4.9V94.3h2.9v11.7h3.7c1.1,0,2-0.4,2.6-1.1c0.6-0.8,0.9-1.7,0.9-3v-7.6H82v8.5
		l0,0.4c0.6,1,1.2,1.7,1.9,2.1s1.5,0.6,2.6,0.6h2.1V91.5h2.9v17.2H86.4z"/>
	<path class="st0" d="M96,105.9h11.5c-0.4-3.2-1.3-5.9-2.6-8.1c-1.3-2.2-3.1-4.2-5.4-5.8l1.1-2.7c2.6,1.4,4.8,3.6,6.5,6.3
		c1.7,2.8,2.8,6.2,3.3,10.2h3.8c0.1,0,0.2,0,0.2,0.1v2.5c0,0.1-0.1,0.2-0.2,0.2H96V105.9z"/>
	<path class="st0" d="M113.8,108.7c-0.1,0-0.2-0.1-0.2-0.2v-2.5c0-0.1,0.1-0.1,0.2-0.1h4.5V91.5h3.1v14.4h4.5c0.1,0,0.2,0,0.2,0.1
		v2.5c0,0.1-0.1,0.2-0.2,0.2H113.8z M119.8,88.1c-0.6,0-1.1-0.2-1.4-0.6c-0.3-0.4-0.5-0.9-0.5-1.6c0-0.7,0.2-1.2,0.5-1.6
		c0.3-0.4,0.8-0.6,1.4-0.6c0.6,0,1.1,0.2,1.4,0.6s0.5,0.9,0.5,1.5c0,0.6-0.2,1.2-0.5,1.5S120.4,88.1,119.8,88.1z"/>
	<path class="st0" d="M125.6,108.7c-0.1,0-0.2-0.1-0.2-0.2v-2.5c0-0.1,0.1-0.1,0.2-0.1h5.3c-0.7-0.5-1.3-1.2-1.8-2.1s-0.7-1.9-0.7-3
		c0-1.4,0.3-2.7,0.9-3.8c0.6-1.1,1.5-1.9,2.5-2.5s2.2-0.9,3.5-0.9c4.5,0,6.7,2.5,6.7,7.6v4.7h4.5V99c0-3.2-0.7-5.6-2.1-7.1
		c-1.4-1.5-3.6-2.3-6.7-2.3c-2.2,0-4.4,0.3-6.4,1l-0.8-2.7c2.2-0.7,4.5-1.1,7.2-1.1c3.7,0,6.6,1,8.7,3.1c2,2.1,3,5,3,8.8v7.2h4.5
		c0.1,0,0.2,0,0.2,0.1v2.5c0,0.1-0.1,0.2-0.2,0.2H125.6z M139.2,105.9v-4.1c0-1.7-0.3-3-1-3.8c-0.7-0.8-1.6-1.2-2.9-1.2
		c-1.2,0-2.1,0.4-2.7,1.1c-0.7,0.7-1,1.8-1,3.1c0,1.5,0.4,2.7,1.3,3.6c0.9,0.9,2,1.3,3.5,1.3H139.2z"/>
	<path class="st0" d="M153.7,108.7c-0.1,0-0.2-0.1-0.2-0.2v-2.5c0-0.1,0.1-0.1,0.2-0.1h4.5V81.8h3.1v26.9H153.7z"/>
	<path class="st0" d="M168.2,81.8h3.1v26.9h-3.1V81.8z"/>
	<path class="st0" d="M189.7,113.2c0-1.5,0.4-2.9,1.2-4.2c0.8-1.3,2.2-2.6,4-3.9c-1.6-1.6-3-3.4-4.2-5.4s-1.8-3.8-2.1-5.5
		c1.3-1.2,2.7-2.2,4.2-2.9c1.6-0.7,3.2-1,4.8-1c1.4,0,2.9,0.2,4.4,0.7c1.5,0.5,2.8,1.1,3.9,1.9c0,2.3-0.6,4.5-1.7,6.6
		c-1.1,2.1-2.6,4-4.6,5.6c1.2,0.5,2.5,0.8,3.9,0.8h4.2c0.1,0,0.2,0,0.2,0.1v2.5c0,0.1-0.1,0.2-0.2,0.2h-4c-0.9,0-1.9-0.2-3.2-0.5
		c-1.2-0.4-2.3-0.8-3.3-1.3c-1.6,1.1-2.8,2.1-3.4,3.1c-0.7,1-1,2-1,3.1c0,1.5,0.4,2.6,1.3,3.3s2.2,1.1,4,1.1c0.9,0,1.8-0.1,2.6-0.2
		s1.6-0.3,2.5-0.4l0.4,2.4c-1.7,0.4-2.9,0.6-3.8,0.7c-0.9,0.1-1.9,0.2-2.9,0.2c-2.2,0-4-0.6-5.2-1.8
		C190.3,117,189.7,115.4,189.7,113.2z M192,95.2c0.3,1.4,0.9,2.8,1.9,4.3c1,1.5,2.1,2.9,3.4,4c1.8-1.2,3.1-2.6,4-4.1
		c0.9-1.5,1.4-3.1,1.5-5c-1.6-0.9-3.3-1.3-5-1.3C195.9,93.1,193.9,93.8,192,95.2z"/>
	<path class="st0" d="M207.4,108.7c-0.1,0-0.2-0.1-0.2-0.2v-2.5c0-0.1,0.1-0.1,0.2-0.1h4.5V91.5h3.1v17.2H207.4z M213.3,115.8
		c-0.6,0-1.1-0.2-1.4-0.6c-0.3-0.4-0.5-0.9-0.5-1.6s0.2-1.2,0.5-1.6c0.3-0.4,0.8-0.6,1.4-0.6c0.6,0,1.1,0.2,1.4,0.6s0.5,0.9,0.5,1.5
		s-0.2,1.2-0.5,1.5C214.4,115.6,213.9,115.8,213.3,115.8z"/>
	<path class="st0" d="M221.4,81.8h3.1v24.1h4.5c0.1,0,0.2,0,0.2,0.1v2.5c0,0.1-0.1,0.2-0.2,0.2h-7.6V81.8z"/>
	<path class="st0" d="M228.7,108.7c-0.1,0-0.2-0.1-0.2-0.2v-2.5c0-0.1,0.1-0.1,0.2-0.1h4.2V81.8h2.9v17.3c1.1-2.6,2.4-4.6,4.1-6
		s3.5-2,5.5-2c2.6,0,4.6,0.7,5.9,2.2c1.3,1.5,2,3.7,2,6.8v5.8h4.5c0.1,0,0.2,0,0.2,0.1v2.5c0,0.1-0.1,0.2-0.2,0.2H228.7z
		 M250.3,105.9v-5.6c0-2.2-0.5-3.8-1.4-4.8c-0.9-1-2.3-1.5-4.2-1.5c-3.5,0-6.5,3-8.9,9.1v2.9H250.3z"/>
	<path class="st0" d="M257.4,108.7c-0.1,0-0.2-0.1-0.2-0.2v-2.5c0-0.1,0.1-0.1,0.2-0.1h4.5V81.8h3.1v26.9H257.4z"/>
	<path class="st0" d="M271.9,81.8h3.1v26.9h-3.1V81.8z"/>
	<path class="st0" d="M285.4,101.9c0,4.5-1.6,8.5-5.3,11l-0.5-0.6c2.5-2.2,3.9-6.2,3.9-10.5c0-4.3-1.5-8.4-3.9-10.5l0.5-0.6
		C283.8,93.3,285.4,97.3,285.4,101.9L285.4,101.9z"/>
</g>
<line class="st1" x1="301.2" y1="141.7" x2="301.2" y2="12.4"/>
</svg>
