<?xml version="1.0" encoding="utf-8"?>
<!-- Generator: Adobe Illustrator 25.0.1, SVG Export Plug-In . SVG Version: 6.00 Build 0)  -->
<svg version="1.1" id="Layer_1" xmlns="http://www.w3.org/2000/svg" xmlns:xlink="http://www.w3.org/1999/xlink" x="0px" y="0px"
	 viewBox="0 0 501.7 724.3" style="enable-background:new 0 0 501.7 724.3;" xml:space="preserve">
<style type="text/css">
	.st0{fill:#E52521;stroke:#E52521;stroke-width:11.9152;stroke-linecap:round;stroke-linejoin:round;stroke-miterlimit:59.5759;}
</style>
<g id="surface5937">
	<path class="st0" d="M301.8,218.9l-0.2-4c-0.1-2.3-0.1-4.7-0.1-6.9c0,1,0.1,2.2,0.1,3.4L301.8,218.9z"/>
	<path class="st0" d="M444,452.5c-21.4,81.1-67.1,157.3-119.8,203.1c-22.5,19.5-116.9,80.7-181.6,15.6
		c-72.4-72.9-76.7-215.6-66.4-256.3l1-4c11.6-33.3-12,120.9,60.6,183.5c68.1,58.9,148.4-7.8,170.8-27.2
		c37.9-32.8,95.5-96.6,125.8-200.8c5.8-18.7,10.9-42.2,14.9-60c-4.6-12.9-11.1-28.6-19.7-41.2c-5.3-7.6-11.9-15.5-19.6-22.8v0.4
		c-9.5,92.1-63.1,88.9-90,57.1c-7-9.3-16.4-29.8-18.2-77.9l-0.1-3.1l-0.2-7.5c-0.1-1.2-0.1-2.3-0.1-3.4v-0.1c0-2.5,0-4.9,0.1-7.3
		c0,0,0,0,0,0c0.8-30.4,6.9-51.3,9.5-57.2c25.6-58.7,92.6-50.9,123.8,24.5c15.9,38,22.1,84.1,23.9,118.6c0,0,0,0,0,0.1
		c0,0.6,0.1,1.3,0.1,2.1l0.5,8C460.2,323.4,463.2,375.6,444,452.5z"/>
	<path class="st0" d="M301.5,200.6c-0.1,2.4-0.1,4.8-0.1,7.3C301.4,204.6,301.4,202.2,301.5,200.6z"/>
	<path class="st0" d="M357.4,20.2c-75.3,28.1-246.9,87.5-322.5,115l-4.5,25.3c75.6-27.5,247.2-86.9,322.5-115L357.4,20.2z"/>
	<path class="st0" d="M243.5,181.7l-9.4,22.9c-18-17.8-29.6-21.2-37.5-15.2c-21.5,16.2-17.7,105.4-35.2,155.2l-8.2,6.7
		c-10.2-49.4-26.9-96.5-50.9-125.7l-8.1,11.5c-34.4-6.6-42-26.7-37.1-36.1l12.6-23.6c0.7-1.2,1.7-2.2,3-2.9
		c56.1,7,81.7,95.1,87.4,149.8c11.5-57.7,16-149.4,39.9-169.1C210.4,146.6,224.3,152.3,243.5,181.7z"/>
</g>
</svg>
